<svg width="79" height="25" viewBox="0 0 79 25" fill="none" xmlns="http://www.w3.org/2000/svg">
    <path fill-rule="evenodd" clip-rule="evenodd" d="M15.0958 5.89605L15.1094 5.90732L15.2467 6.02157L15.3569 6.11354L15.8448 6.5194L15.8457 17.8571C13.2471 20.0028 10.6323 22.1288 8.0018 24.2346C7.83487 24.218 3.50219 20.6546 1.30126 18.8444L1.2398 18.7939C0.675732 18.33 0.26113 17.9891 0.107809 17.8652L0.100098 6.52559L7.93602 0.105164C8.19141 0.141339 13.0832 4.21828 15.0958 5.89605ZM11.7121 8.21241L11.7033 8.19822L11.7019 8.19566L11.6897 8.17597C10.4019 6.09225 8.14604 2.4425 7.95303 2.30399L3.40625 9.54853L3.41646 14.5777L4.33071 16.0779C4.73103 16.1349 5.13474 16.2001 5.53982 16.2656C6.36153 16.3983 7.1887 16.532 8.00452 16.5998L8.49782 16.5262L9.09273 16.4364C9.93305 16.3094 10.7736 16.1823 11.6155 16.0697L12.5327 14.6453L12.5322 9.53429C12.4229 9.36272 12.1172 8.86796 11.7121 8.21241ZM12.872 10.1426C13.192 10.5426 13.4669 11.0331 13.7332 11.5083C13.8101 11.6451 13.8861 11.7807 13.9623 11.9125C14.0001 11.978 14.038 12.0426 14.0761 12.106L13.9235 12.3552L13.7649 12.6129C13.6266 12.8366 13.4876 13.0598 13.3474 13.2826L12.8634 14.0678C12.8629 13.6903 12.8598 13.312 12.8566 12.9335C12.8489 12.0027 12.8414 11.0702 12.872 10.1426ZM9.24424 1.52121C8.8682 1.19091 8.40687 0.785922 8.13017 0.667898L8.13856 1.04009C8.14536 1.33237 8.15217 1.62471 8.15466 1.91692C9.59896 4.24776 11.0553 6.57121 12.5236 8.88708C12.5234 8.81585 12.5202 8.7044 12.5164 8.56774V8.56075V8.55354V8.54979V8.54512C12.4989 7.89258 12.4672 6.70594 12.6336 6.53106C12.6379 6.52629 12.6427 6.52191 12.6479 6.51768L12.6604 6.50753L12.6729 6.49738L12.8196 6.56157C12.9328 7.0772 12.9056 7.88158 12.8813 8.59823L12.8808 8.60869L12.8795 8.65248C12.8697 8.95104 12.8607 9.23252 12.8634 9.4691C13.0564 9.79211 13.2544 10.1132 13.4526 10.4345C13.7969 10.9925 14.1414 11.551 14.4608 12.1211L12.8657 14.6825L12.8695 16.324V17.588L15.515 17.5894L15.5093 6.68039C13.5703 5.0491 11.6123 3.44106 9.63503 1.85667L9.57402 1.80673L9.51799 1.75957C9.43589 1.68966 9.34313 1.60801 9.24424 1.52121ZM7.74936 0.688566L7.78724 0.721041C7.86367 0.948018 7.84235 1.29839 7.82398 1.60179C7.81718 1.71313 7.81083 1.81816 7.80969 1.90843L3.39672 8.95107C3.39786 8.84217 3.40103 8.72718 3.40534 8.6082L3.40943 8.49902L3.41827 8.28571C3.44073 7.75349 3.46477 7.18184 3.40557 6.73431C3.38901 6.60891 3.35159 6.56362 3.25452 6.49024L3.15245 6.50957C2.99823 6.74951 3.04245 8.23456 3.06649 9.04364L3.07353 9.29386C3.07557 9.36722 3.07693 9.4283 3.07738 9.47404C2.54779 10.3396 2.02545 11.2095 1.50992 12.0835L3.08056 14.6592L3.07398 16.1321L3.06876 17.5899L0.431235 17.5861L0.441214 6.6862C2.01253 5.33078 3.63283 4.02291 5.25177 2.71627C6.0871 2.04217 6.92197 1.36839 7.74936 0.688566ZM6.05625 16.6717C5.56 16.5833 5.0642 16.4949 4.5709 16.4549L4.95239 17.0674C5.96939 18.6996 6.98888 20.3362 7.96142 21.993C8.4545 21.1977 8.94281 20.3995 9.42546 19.5984C9.64387 19.2463 9.86047 18.8928 10.0771 18.5392C10.506 17.8389 10.9353 17.1384 11.3787 16.4482C11.1025 16.4873 10.7738 16.544 10.4241 16.6044C9.5561 16.7542 8.55747 16.9265 7.90472 16.9087C7.29167 16.892 6.67385 16.7818 6.05625 16.6717ZM3.39922 16.2779L4.14632 16.3859C4.64711 17.2165 5.15651 18.0421 5.66592 18.8677L5.66796 18.8714L5.68157 18.8936C6.39556 20.0512 7.10954 21.209 7.80017 22.3811C7.79971 22.5636 7.80017 22.7463 7.80175 22.9289C7.80379 23.1907 7.80765 23.4525 7.81355 23.7142L6.32434 22.4953L0.702948 17.9099C1.3337 17.9186 1.96512 17.9167 2.59633 17.9148C2.86282 17.914 3.12932 17.9132 3.39559 17.9132C3.41033 17.3688 3.40035 16.8229 3.39922 16.2779ZM12.3472 16.3026L12.3193 16.3053L11.8022 16.3849L8.14491 22.337L8.13062 23.7098C8.36627 23.5177 8.60215 23.3263 8.83871 23.1354C9.13469 22.8964 9.43158 22.6583 9.72892 22.4209C11.5797 20.9358 13.4154 19.4324 15.2362 17.9103L12.5361 17.9132C12.5377 17.7927 12.5427 17.667 12.5479 17.5388L12.5486 17.5277C12.5651 17.1295 12.5826 16.7083 12.503 16.3456C12.432 16.2923 12.4229 16.2934 12.3683 16.3001L12.3472 16.3026ZM3.07965 13.9052L3.07852 14.0275L2.68773 13.3891C2.52171 13.0838 2.33618 12.7846 2.15133 12.4867C2.069 12.3538 1.9869 12.2212 1.90661 12.0884C2.13478 11.6602 2.3854 11.2414 2.63579 10.8231L2.82721 10.5029C2.89027 10.3967 2.95309 10.2903 3.01501 10.1836C3.14588 10.3828 3.10687 12.4383 3.08691 13.4889C3.08373 13.6575 3.08101 13.8002 3.07965 13.9052ZM12.1775 15.9416L12.2453 15.8205C12.3646 15.6067 12.4846 15.3918 12.6393 15.2014C12.6531 15.3981 12.6386 15.6659 12.6032 15.827C12.4093 15.8981 12.3306 15.9234 12.1775 15.9416ZM3.41872 15.2686C3.60266 15.4951 3.73716 15.756 3.88028 16.0088C3.82766 16.0026 3.80361 16.0006 3.78003 15.9961C3.73512 15.9874 3.69203 15.9694 3.45456 15.8942C3.41872 15.6659 3.40466 15.4653 3.41872 15.2686Z" fill="black"/>
    <path d="M11.7033 8.19822L11.7121 8.21241C12.1172 8.86796 12.4229 9.36272 12.5322 9.53429L12.5327 14.6453L11.6155 16.0697C10.7736 16.1823 9.93305 16.3094 9.09273 16.4364L8.49782 16.5262L8.00452 16.5998C7.1887 16.532 6.36153 16.3983 5.53982 16.2656C5.13474 16.2001 4.73103 16.1349 4.33071 16.0779L3.41646 14.5777L3.40625 9.54853L7.95303 2.30399M11.7033 8.19822L11.7019 8.19566L11.6897 8.17597C10.4019 6.09225 8.14604 2.4425 7.95303 2.30399M11.7033 8.19822C11.3817 7.67762 10.9981 7.05703 10.601 6.41699C9.41117 4.49999 8.09819 2.40821 7.95303 2.30399M12.5236 8.88708C11.0553 6.57121 9.59896 4.24776 8.15466 1.91692C8.15217 1.62471 8.14536 1.33237 8.13856 1.04009L8.13017 0.667898C8.40687 0.785922 8.8682 1.19091 9.24424 1.52121C9.34313 1.60801 9.43589 1.68966 9.518 1.75957L9.57402 1.80673L9.63503 1.85667C11.6123 3.44106 13.5703 5.0491 15.5093 6.68039L15.515 17.5894L12.8695 17.588V16.324L12.8657 14.6825L14.4608 12.1211C14.1414 11.551 13.7969 10.9925 13.4526 10.4345C13.2544 10.1132 13.0564 9.79211 12.8634 9.4691M12.5236 8.88708C12.5234 8.81585 12.5202 8.7044 12.5164 8.56774M12.5236 8.88708C12.5236 8.88596 12.5236 8.88484 12.5236 8.88371C12.5236 8.81235 12.5202 8.70226 12.5164 8.56774M12.5164 8.56774V8.56075V8.55354V8.54979V8.54512C12.4989 7.89258 12.4672 6.70594 12.6336 6.53106C12.6379 6.52629 12.6427 6.52191 12.6479 6.51768L12.6604 6.50753L12.6729 6.49738L12.8196 6.56157C12.9328 7.0772 12.9056 7.88158 12.8813 8.59823M12.8813 8.59823L12.8808 8.60869L12.8795 8.65248C12.8697 8.95104 12.8607 9.23252 12.8634 9.4691M12.8813 8.59823C12.8797 8.64497 12.8784 8.69206 12.8768 8.73794C12.8681 9.00467 12.8609 9.25522 12.8634 9.4691M3.78003 15.9961C3.80361 16.0006 3.82766 16.0026 3.88028 16.0088C3.73716 15.756 3.60266 15.4951 3.41872 15.2686C3.40466 15.4653 3.41872 15.6659 3.45456 15.8942M3.78003 15.9961C3.73512 15.9874 3.69203 15.9694 3.45456 15.8942M3.78003 15.9961C3.73557 15.9875 3.69384 15.9701 3.46341 15.897C3.46046 15.8961 3.45751 15.8951 3.45456 15.8942M15.0958 5.89605L15.1094 5.90732L15.2467 6.02157L15.3569 6.11354L15.8448 6.5194L15.8457 17.8571C13.2471 20.0028 10.6323 22.1288 8.0018 24.2346C7.83487 24.218 3.50219 20.6546 1.30126 18.8444L1.2398 18.7939C0.675732 18.33 0.26113 17.9891 0.107809 17.8652L0.100098 6.52559L7.93602 0.105164C8.19141 0.141339 13.0832 4.21828 15.0958 5.89605ZM12.872 10.1426C13.192 10.5426 13.4669 11.0331 13.7332 11.5083C13.8101 11.6451 13.8861 11.7807 13.9623 11.9125C14.0001 11.978 14.038 12.0426 14.0761 12.106L13.9235 12.3552L13.7649 12.6129C13.6266 12.8366 13.4876 13.0598 13.3474 13.2826L12.8634 14.0678C12.8629 13.6903 12.8598 13.312 12.8566 12.9335C12.8489 12.0027 12.8414 11.0702 12.872 10.1426ZM7.74936 0.688566L7.78724 0.721041C7.86367 0.948018 7.84235 1.29839 7.82398 1.60179C7.81718 1.71313 7.81083 1.81816 7.80969 1.90843L3.39672 8.95107C3.39786 8.84217 3.40103 8.72718 3.40534 8.6082L3.40943 8.49902L3.41827 8.28571C3.44073 7.75349 3.46477 7.18184 3.40557 6.73431C3.38901 6.60891 3.35159 6.56362 3.25452 6.49024L3.15245 6.50957C2.99823 6.74951 3.04245 8.23456 3.06649 9.04364L3.07353 9.29386C3.07557 9.36722 3.07693 9.4283 3.07738 9.47404C2.54779 10.3396 2.02545 11.2095 1.50992 12.0835L3.08056 14.6592L3.07398 16.1321L3.06876 17.5899L0.431235 17.5861L0.441214 6.6862C2.01253 5.33078 3.63283 4.02291 5.25177 2.71627C6.0871 2.04217 6.92197 1.36839 7.74936 0.688566ZM6.05625 16.6717C5.56 16.5833 5.0642 16.4949 4.5709 16.4549L4.95239 17.0674C5.96939 18.6996 6.98888 20.3362 7.96142 21.993C8.4545 21.1977 8.94281 20.3995 9.42546 19.5984C9.64387 19.2463 9.86047 18.8928 10.0771 18.5392C10.506 17.8389 10.9353 17.1384 11.3787 16.4482C11.1025 16.4873 10.7738 16.544 10.4241 16.6044C9.5561 16.7542 8.55747 16.9265 7.90472 16.9087C7.29167 16.892 6.67385 16.7818 6.05625 16.6717ZM3.39922 16.2779L4.14632 16.3859C4.64711 17.2165 5.15651 18.0421 5.66592 18.8677L5.66796 18.8714L5.68157 18.8936C6.39556 20.0512 7.10954 21.209 7.80017 22.3811C7.79971 22.5636 7.80017 22.7463 7.80175 22.9289C7.80379 23.1907 7.80765 23.4525 7.81355 23.7142L6.32434 22.4953L0.702948 17.9099C1.3337 17.9186 1.96512 17.9167 2.59633 17.9148C2.86282 17.914 3.12932 17.9132 3.39559 17.9132C3.41033 17.3688 3.40035 16.8229 3.39922 16.2779ZM12.3472 16.3026L12.3193 16.3053L11.8022 16.3849L8.14491 22.337L8.13062 23.7098C8.36627 23.5177 8.60215 23.3263 8.83871 23.1354C9.13469 22.8964 9.43158 22.6583 9.72892 22.4209C11.5797 20.9358 13.4154 19.4324 15.2362 17.9103L12.5361 17.9132C12.5377 17.7927 12.5427 17.667 12.5479 17.5388L12.5486 17.5277C12.5651 17.1295 12.5826 16.7083 12.503 16.3456C12.432 16.2923 12.4229 16.2934 12.3683 16.3001L12.3472 16.3026ZM3.07965 13.9052L3.07852 14.0275L2.68773 13.3891C2.52171 13.0838 2.33618 12.7846 2.15133 12.4867C2.069 12.3538 1.9869 12.2212 1.90661 12.0884C2.13478 11.6602 2.3854 11.2414 2.63579 10.8231L2.82721 10.5029C2.89027 10.3967 2.95309 10.2903 3.01501 10.1836C3.14588 10.3828 3.10687 12.4383 3.08691 13.4889C3.08373 13.6575 3.08101 13.8002 3.07965 13.9052ZM12.1775 15.9416L12.2453 15.8205C12.3646 15.6067 12.4846 15.3918 12.6393 15.2014C12.6531 15.3981 12.6386 15.6659 12.6032 15.827C12.4093 15.8981 12.3306 15.9234 12.1775 15.9416Z" stroke="black" stroke-width="0.2"/>
    <path fill-rule="evenodd" clip-rule="evenodd" d="M11.712 8.21237C11.5515 7.9527 11.3755 7.66782 11.1899 7.3678C11.3721 7.66235 11.5451 7.94235 11.7032 8.19818L11.712 8.21237Z" fill="black" stroke="black" stroke-width="0.2"/>
    <path fill-rule="evenodd" clip-rule="evenodd" d="M12.5234 8.88701C12.5231 8.81333 12.52 8.6966 12.5161 8.55347V8.56068C12.52 8.70052 12.5231 8.81458 12.5234 8.88701Z" fill="black"/>
    <path d="M12.5161 8.56068V8.55347C12.52 8.6966 12.5231 8.81333 12.5234 8.88701C12.5231 8.81458 12.52 8.70052 12.5161 8.56068ZM12.5161 8.56068V8.56767C12.52 8.70219 12.5234 8.81222 12.5234 8.88358" stroke="black" stroke-width="0.2"/>
    <path fill-rule="evenodd" clip-rule="evenodd" d="M3.4082 8.52966C3.40253 8.67662 3.398 8.81833 3.39664 8.95101C3.39777 8.84212 3.40095 8.72713 3.40525 8.60814C3.40616 8.5824 3.4073 8.55575 3.4082 8.52966ZM3.07729 9.47398C3.07661 9.38308 3.07208 9.23157 3.06641 9.04358L3.07344 9.2938C3.07548 9.36716 3.07684 9.42824 3.07729 9.47398Z" fill="black" stroke="black" stroke-width="0.2"/>
    <path fill-rule="evenodd" clip-rule="evenodd" d="M12.5376 17.8364C12.5401 17.7361 12.5444 17.6327 12.5487 17.5276L12.548 17.5387C12.5439 17.6403 12.5399 17.7393 12.5376 17.8364Z" fill="black"/>
    <path d="M12.548 17.5387L12.5487 17.5276C12.5444 17.6327 12.5401 17.7361 12.5376 17.8364C12.5399 17.7393 12.5439 17.6403 12.548 17.5387ZM12.548 17.5387C12.5453 17.6042 12.5426 17.6686 12.5405 17.7324C12.5394 17.7648 12.5385 17.7973 12.5378 17.8291" stroke="black" stroke-width="0.2"/>
    <path fill-rule="evenodd" clip-rule="evenodd" d="M3.01489 10.1836C2.94027 10.3121 2.86452 10.4403 2.78809 10.5683L2.8271 10.5029C2.89015 10.3966 2.95297 10.2902 3.01489 10.1836ZM3.0784 14.0274C3.0784 13.8989 3.08452 13.6098 3.09133 13.2446C3.08974 13.3306 3.08815 13.4124 3.08679 13.4888C3.08203 13.7371 3.0784 13.9292 3.0784 14.0274Z" fill="black" stroke="black" stroke-width="0.2"/>
    <path d="M52.3202 22.5884V21.838H53.0818C53.3431 21.838 53.5671 21.8044 53.7538 21.7372C53.9404 21.6775 54.0972 21.5692 54.2242 21.4124C54.3511 21.2556 54.4594 21.0391 54.549 20.7628L56.5426 14.3564H57.3602L55.277 20.998C55.1575 21.3788 54.9932 21.685 54.7842 21.9164C54.5751 22.1554 54.325 22.3271 54.0338 22.4316C53.7426 22.5362 53.4103 22.5884 53.037 22.5884H52.3202ZM54.2466 20.1356V19.43H55.3106V20.1356H54.2466ZM54.1458 20.1356L51.9954 14.3564H52.8578L54.9298 20.1356H54.1458Z" fill="black"/>
    <path d="M48.2444 20.2812V14.3564H48.9164V16.8316H48.8492C48.8492 15.9655 49.0396 15.3271 49.4204 14.9164C49.8012 14.4983 50.3985 14.2892 51.2124 14.2892H51.4028V15.0508H51.0556C50.4135 15.0508 49.9244 15.2188 49.5884 15.5548C49.2524 15.8833 49.0844 16.3687 49.0844 17.0108V20.2812H48.2444Z" fill="black"/>
    <path d="M45.3392 20.2812V12.1052H46.1792V20.2812H45.3392ZM44.4768 12.7884V12.1052H46.1792V12.7884H44.4768Z" fill="black"/>
    <path d="M41.0455 20.4716C40.5377 20.4716 40.0972 20.3857 39.7239 20.214C39.3505 20.0348 39.0444 19.7996 38.8055 19.5084C38.5665 19.2097 38.3873 18.8775 38.2679 18.5116C38.1559 18.1457 38.0999 17.7687 38.0999 17.3804V17.2236C38.0999 16.8428 38.1559 16.4695 38.2679 16.1036C38.3873 15.7377 38.5665 15.4092 38.8055 15.118C39.0444 14.8268 39.3431 14.5953 39.7015 14.4236C40.0673 14.2444 40.4929 14.1548 40.9783 14.1548C41.598 14.1548 42.1132 14.2929 42.5239 14.5692C42.942 14.8455 43.2556 15.2001 43.4647 15.6332C43.6737 16.0588 43.7783 16.518 43.7783 17.0108V17.4476H38.4807V16.798H43.1959L42.9831 17.1228C42.9831 16.6823 42.9047 16.2977 42.7479 15.9692C42.5985 15.6332 42.3745 15.3719 42.0759 15.1852C41.7847 14.9911 41.4188 14.894 40.9783 14.894C40.5153 14.894 40.1308 15.0023 39.8247 15.2188C39.5185 15.4353 39.2871 15.7228 39.1303 16.0812C38.9809 16.4396 38.9063 16.8465 38.9063 17.302C38.9063 17.75 38.9809 18.1607 39.1303 18.534C39.2871 18.8999 39.5223 19.1911 39.8359 19.4076C40.1569 19.6241 40.5601 19.7324 41.0455 19.7324C41.5607 19.7324 41.9788 19.6167 42.2999 19.3852C42.6209 19.1463 42.8188 18.8663 42.8935 18.5452H43.6775C43.6028 18.9409 43.446 19.2844 43.2071 19.5756C42.9681 19.8593 42.6657 20.0796 42.2999 20.2364C41.934 20.3932 41.5159 20.4716 41.0455 20.4716Z" fill="black"/>
    <path d="M25.784 20.9509C25.2762 20.9509 24.8357 20.865 24.4624 20.6933C24.089 20.5141 23.7829 20.2789 23.544 19.9877C23.305 19.689 23.1258 19.3568 23.0064 18.9909C22.8944 18.625 22.8384 18.248 22.8384 17.8597V17.7029C22.8384 17.3221 22.8944 16.9488 23.0064 16.5829C23.1258 16.217 23.305 15.8885 23.544 15.5973C23.7829 15.3061 24.0816 15.0746 24.44 14.9029C24.8058 14.7237 25.2314 14.6341 25.7168 14.6341C26.3365 14.6341 26.8517 14.7722 27.2624 15.0485C27.6805 15.3248 27.9941 15.6794 28.2032 16.1125C28.4122 16.5381 28.5168 16.9973 28.5168 17.4901V17.9269H23.2192V17.2773H27.9344L27.7216 17.6021C27.7216 17.1616 27.6432 16.777 27.4864 16.4485C27.337 16.1125 27.113 15.8512 26.8144 15.6645C26.5232 15.4704 26.1573 15.3733 25.7168 15.3733C25.2538 15.3733 24.8693 15.4816 24.5632 15.6981C24.257 15.9146 24.0256 16.2021 23.8688 16.5605C23.7194 16.9189 23.6448 17.3258 23.6448 17.7813C23.6448 18.2293 23.7194 18.64 23.8688 19.0133C24.0256 19.3792 24.2608 19.6704 24.5744 19.8869C24.8954 20.1034 25.2986 20.2117 25.784 20.2117C26.2992 20.2117 26.7173 20.096 27.0384 19.8645C27.3594 19.6256 27.5573 19.3456 27.632 19.0245H28.416C28.3413 19.4202 28.1845 19.7637 27.9456 20.0549C27.7066 20.3386 27.4042 20.5589 27.0384 20.7157C26.6725 20.8725 26.2544 20.9509 25.784 20.9509Z" fill="black"/>
    <path d="M18.8662 23.0341V22.2837H19.5382C19.8294 22.2837 20.0497 22.1978 20.199 22.0261C20.3558 21.8618 20.4342 21.6229 20.4342 21.3093V14.8357H21.2406V21.1525C21.2406 21.6154 21.1771 21.985 21.0502 22.2613C20.9307 22.5375 20.7366 22.7354 20.4678 22.8549C20.199 22.9743 19.8406 23.0341 19.3926 23.0341H18.8662ZM19.471 15.5077V14.8357H21.2406V15.5077H19.471ZM20.591 13.6373C20.3894 13.6373 20.2363 13.585 20.1318 13.4805C20.0347 13.3685 19.9862 13.2303 19.9862 13.0661C19.9862 12.9018 20.0347 12.7674 20.1318 12.6629C20.2363 12.5509 20.3894 12.4949 20.591 12.4949C20.7926 12.4949 20.9419 12.5509 21.039 12.6629C21.1361 12.7674 21.1846 12.9018 21.1846 13.0661C21.1846 13.2303 21.1361 13.3685 21.039 13.4805C20.9419 13.585 20.7926 13.6373 20.591 13.6373Z" fill="black"/>
    <path d="M74.7354 11.4083C74.2277 11.4083 73.7871 11.3224 73.4138 11.1507C73.0405 10.9715 72.7343 10.7363 72.4954 10.4451C72.2565 10.1464 72.0773 9.81416 71.9578 9.44829C71.8458 9.08242 71.7898 8.70536 71.7898 8.31709V8.16029C71.7898 7.77949 71.8458 7.40616 71.9578 7.04029C72.0773 6.67443 72.2565 6.34589 72.4954 6.05469C72.7343 5.76349 73.033 5.53203 73.3914 5.36029C73.7573 5.18109 74.1829 5.09149 74.6682 5.09149C75.2879 5.09149 75.8031 5.22963 76.2138 5.50589C76.6319 5.78216 76.9455 6.13683 77.1546 6.56989C77.3637 6.99549 77.4682 7.45469 77.4682 7.94749V8.38429H72.1706V7.73469H76.8858L76.673 8.05949C76.673 7.61896 76.5946 7.23443 76.4378 6.90589C76.2885 6.56989 76.0645 6.30856 75.7658 6.12189C75.4746 5.92776 75.1087 5.83069 74.6682 5.83069C74.2053 5.83069 73.8207 5.93896 73.5146 6.15549C73.2085 6.37203 72.977 6.65949 72.8202 7.01789C72.6709 7.37629 72.5962 7.78323 72.5962 8.23869C72.5962 8.68669 72.6709 9.09736 72.8202 9.47069C72.977 9.83656 73.2122 10.1278 73.5258 10.3443C73.8469 10.5608 74.2501 10.6691 74.7354 10.6691C75.2506 10.6691 75.6687 10.5534 75.9898 10.3219C76.3109 10.083 76.5087 9.80296 76.5834 9.48189H77.3674C77.2927 9.87762 77.1359 10.2211 76.897 10.5123C76.6581 10.796 76.3557 11.0163 75.9898 11.1731C75.6239 11.3299 75.2058 11.4083 74.7354 11.4083Z" fill="black"/>
    <path d="M67.1464 11.4083C66.7133 11.4083 66.3176 11.3299 65.9592 11.1731C65.6083 11.0089 65.3021 10.7849 65.0408 10.5011C64.7869 10.2099 64.5891 9.8814 64.4472 9.51553C64.3128 9.1422 64.2456 8.74646 64.2456 8.32833V8.17153C64.2456 7.76833 64.3128 7.3838 64.4472 7.01793C64.5816 6.6446 64.772 6.31606 65.0184 6.03233C65.2723 5.74113 65.5747 5.5134 65.9256 5.34913C66.284 5.1774 66.6835 5.09153 67.124 5.09153C67.6243 5.09153 68.0648 5.1998 68.4456 5.41633C68.8264 5.63286 69.1325 5.94646 69.364 6.35713C69.5955 6.76033 69.7187 7.25686 69.7336 7.84673L69.364 7.15233V3.04193H70.204V11.2179H69.532V8.58593H69.8008C69.7859 9.20566 69.6552 9.72833 69.4088 10.1539C69.1699 10.5721 68.8525 10.8857 68.4568 11.0947C68.0685 11.3038 67.6317 11.4083 67.1464 11.4083ZM67.2584 10.6691C67.6616 10.6691 68.0237 10.5795 68.3448 10.4003C68.6733 10.2211 68.9309 9.96727 69.1176 9.63873C69.3043 9.30273 69.3976 8.9182 69.3976 8.48513V7.94753C69.3976 7.5294 69.3043 7.16353 69.1176 6.84993C68.9309 6.52886 68.6733 6.27873 68.3448 6.09953C68.0237 5.92033 67.6579 5.83073 67.2472 5.83073C66.8067 5.83073 66.4221 5.939 66.0936 6.15553C65.7725 6.3646 65.5224 6.65206 65.3432 7.01793C65.1715 7.3838 65.0856 7.79446 65.0856 8.24993C65.0856 8.72033 65.1752 9.13846 65.3544 9.50433C65.5336 9.8702 65.7875 10.1577 66.116 10.3667C66.4445 10.5683 66.8253 10.6691 67.2584 10.6691Z" fill="black"/>
    <path d="M62.0579 11.218V9.43715H61.9235V7.33155C61.9235 6.89102 61.8077 6.55502 61.5763 6.32355C61.3448 6.08462 60.9864 5.96515 60.5011 5.96515C60.2771 5.96515 60.0493 5.96889 59.8179 5.97635C59.5939 5.98382 59.3773 5.99502 59.1683 6.00995C58.9667 6.01742 58.7875 6.02862 58.6307 6.04355V5.30435C58.7949 5.28942 58.9629 5.27449 59.1347 5.25955C59.3064 5.24462 59.4819 5.23715 59.6611 5.23715C59.8477 5.22969 60.0269 5.22595 60.1987 5.22595C60.8035 5.22595 61.2888 5.30062 61.6547 5.44995C62.028 5.59929 62.3005 5.83449 62.4723 6.15555C62.644 6.46915 62.7299 6.88729 62.7299 7.40995V11.218H62.0579ZM60.0531 11.3748C59.6349 11.3748 59.2653 11.3001 58.9443 11.1508C58.6232 11.0014 58.3731 10.7849 58.1939 10.5012C58.0221 10.2174 57.9363 9.87395 57.9363 9.47075C57.9363 9.07502 58.0259 8.73902 58.2051 8.46275C58.3917 8.18649 58.6568 7.97742 59.0003 7.83555C59.3512 7.68622 59.7731 7.61155 60.2659 7.61155H62.0019V8.24995H60.2099C59.7395 8.24995 59.3773 8.36569 59.1235 8.59715C58.8771 8.82115 58.7539 9.11609 58.7539 9.48195C58.7539 9.85529 58.8845 10.154 59.1459 10.378C59.4072 10.5945 59.7619 10.7028 60.2099 10.7028C60.4861 10.7028 60.7512 10.6542 61.0051 10.5572C61.2589 10.4526 61.4717 10.2809 61.6435 10.042C61.8152 9.79555 61.9085 9.45955 61.9235 9.03395L62.1699 9.38115C62.14 9.82169 62.0355 10.1913 61.8563 10.49C61.6771 10.7812 61.4344 11.0014 61.1283 11.1508C60.8221 11.3001 60.4637 11.3748 60.0531 11.3748Z" fill="black"/>
    <path d="M47.79 11.218V5.28195H48.462V7.77955H48.3276C48.3276 7.23449 48.4023 6.76409 48.5516 6.36835C48.7084 5.97262 48.9399 5.66649 49.246 5.44995C49.5522 5.22595 49.9404 5.11395 50.4108 5.11395H50.4444C50.9148 5.11395 51.3031 5.22222 51.6092 5.43875C51.9154 5.65529 52.1431 5.96142 52.2924 6.35715C52.4418 6.75289 52.5164 7.22702 52.5164 7.77955H52.2476C52.2476 7.23449 52.3223 6.76409 52.4716 6.36835C52.6284 5.97262 52.8599 5.66649 53.166 5.44995C53.4796 5.22595 53.8716 5.11395 54.342 5.11395H54.3756C54.846 5.11395 55.2343 5.22222 55.5404 5.43875C55.854 5.65529 56.0855 5.96142 56.2348 6.35715C56.3916 6.75289 56.47 7.22702 56.47 7.77955V11.218H55.63V7.58915C55.63 7.06649 55.5031 6.65209 55.2492 6.34595C54.9954 6.03982 54.6295 5.88675 54.1516 5.88675C53.6588 5.88675 53.2668 6.04729 52.9756 6.36835C52.6919 6.68195 52.55 7.10755 52.55 7.64515V11.218H51.71V7.58915C51.71 7.06649 51.5831 6.65209 51.3292 6.34595C51.0754 6.03982 50.7095 5.88675 50.2316 5.88675C49.7388 5.88675 49.3468 6.04729 49.0556 6.36835C48.7719 6.68195 48.63 7.10755 48.63 7.64515V11.218H47.79Z" fill="black"/>
    <path d="M42.6762 11.4083C42.2431 11.4083 41.8474 11.3299 41.489 11.1731C41.1381 11.0089 40.8319 10.7849 40.5706 10.5011C40.3167 10.2099 40.1189 9.8814 39.977 9.51553C39.8426 9.1422 39.7754 8.74646 39.7754 8.32833V8.17153C39.7754 7.76833 39.8426 7.3838 39.977 7.01793C40.1114 6.6446 40.3018 6.31606 40.5482 6.03233C40.8021 5.74113 41.1045 5.5134 41.4554 5.34913C41.8138 5.1774 42.2133 5.09153 42.6538 5.09153C43.1541 5.09153 43.5946 5.1998 43.9754 5.41633C44.3562 5.63286 44.6623 5.94646 44.8938 6.35713C45.1253 6.76033 45.2485 7.25686 45.2634 7.84673L44.8938 7.15233V3.04193H45.7338V11.2179H45.0618V8.58593H45.3306C45.3157 9.20566 45.185 9.72833 44.9386 10.1539C44.6997 10.5721 44.3823 10.8857 43.9866 11.0947C43.5983 11.3038 43.1615 11.4083 42.6762 11.4083ZM42.7882 10.6691C43.1914 10.6691 43.5535 10.5795 43.8746 10.4003C44.2031 10.2211 44.4607 9.96727 44.6474 9.63873C44.8341 9.30273 44.9274 8.9182 44.9274 8.48513V7.94753C44.9274 7.5294 44.8341 7.16353 44.6474 6.84993C44.4607 6.52886 44.2031 6.27873 43.8746 6.09953C43.5535 5.92033 43.1877 5.83073 42.777 5.83073C42.3365 5.83073 41.9519 5.939 41.6234 6.15553C41.3023 6.3646 41.0522 6.65206 40.873 7.01793C40.7013 7.3838 40.6154 7.79446 40.6154 8.24993C40.6154 8.72033 40.705 9.13846 40.8842 9.50433C41.0634 9.8702 41.3173 10.1577 41.6458 10.3667C41.9743 10.5683 42.3551 10.6691 42.7882 10.6691Z" fill="black"/>
    <path d="M33.2483 11.218V5.29315H33.9203V7.77955H33.7859C33.7859 7.22702 33.868 6.75289 34.0323 6.35715C34.1966 5.96142 34.443 5.65529 34.7715 5.43875C35.1 5.22222 35.5144 5.11395 36.0147 5.11395H36.0483C36.795 5.11395 37.3512 5.34915 37.7171 5.81955C38.083 6.28249 38.2659 6.93582 38.2659 7.77955V11.218H37.4371V7.60035C37.4371 7.08515 37.2952 6.67075 37.0115 6.35715C36.7278 6.04355 36.332 5.88675 35.8243 5.88675C35.3016 5.88675 34.8798 6.05102 34.5587 6.37955C34.2451 6.70062 34.0883 7.12622 34.0883 7.65635V11.218H33.2483Z" fill="black"/>
    <path d="M30.5899 11.218V9.43715H30.4555V7.33155C30.4555 6.89102 30.3397 6.55502 30.1083 6.32355C29.8768 6.08462 29.5184 5.96515 29.0331 5.96515C28.8091 5.96515 28.5813 5.96889 28.3499 5.97635C28.1259 5.98382 27.9093 5.99502 27.7003 6.00995C27.4987 6.01742 27.3195 6.02862 27.1627 6.04355V5.30435C27.3269 5.28942 27.4949 5.27449 27.6667 5.25955C27.8384 5.24462 28.0139 5.23715 28.1931 5.23715C28.3797 5.22969 28.5589 5.22595 28.7307 5.22595C29.3355 5.22595 29.8208 5.30062 30.1867 5.44995C30.56 5.59929 30.8325 5.83449 31.0043 6.15555C31.176 6.46915 31.2619 6.88729 31.2619 7.40995V11.218H30.5899ZM28.5851 11.3748C28.1669 11.3748 27.7973 11.3001 27.4763 11.1508C27.1552 11.0014 26.9051 10.7849 26.7259 10.5012C26.5541 10.2174 26.4683 9.87395 26.4683 9.47075C26.4683 9.07502 26.5579 8.73902 26.7371 8.46275C26.9237 8.18649 27.1888 7.97742 27.5323 7.83555C27.8832 7.68622 28.3051 7.61155 28.7979 7.61155H30.5339V8.24995H28.7419C28.2715 8.24995 27.9093 8.36569 27.6555 8.59715C27.4091 8.82115 27.2859 9.11609 27.2859 9.48195C27.2859 9.85529 27.4165 10.154 27.6779 10.378C27.9392 10.5945 28.2939 10.7028 28.7419 10.7028C29.0181 10.7028 29.2832 10.6542 29.5371 10.5572C29.7909 10.4526 30.0037 10.2809 30.1755 10.042C30.3472 9.79555 30.4405 9.45955 30.4555 9.03395L30.7019 9.38115C30.672 9.82169 30.5675 10.1913 30.3883 10.49C30.2091 10.7812 29.9664 11.0014 29.6603 11.1508C29.3541 11.3001 28.9957 11.3748 28.5851 11.3748Z" fill="black"/>
    <path d="M19.9863 11.2179V3.04193H20.8263V7.66753L20.5799 7.85793C20.5799 7.3054 20.6583 6.8238 20.8151 6.41313C20.9794 6.00246 21.2221 5.68513 21.5431 5.46113C21.8717 5.22966 22.2823 5.11393 22.7751 5.11393H22.8199C23.5367 5.11393 24.0781 5.34913 24.4439 5.81953C24.8173 6.28993 25.0039 6.94326 25.0039 7.77953V11.2179H24.1751V7.60033C24.1751 7.0702 24.0295 6.65206 23.7383 6.34593C23.4471 6.0398 23.0551 5.88673 22.5623 5.88673C22.0322 5.88673 21.6103 6.05846 21.2967 6.40193C20.9831 6.73793 20.8263 7.1822 20.8263 7.73473V11.2179H19.9863Z" fill="black"/>
    <path d="M31.6477 20.1052L32.8229 14.7804H33.9149L35.2773 20.1052H34.6013L33.2389 14.8116H33.4885L32.3029 20.1052H31.6477ZM31.2005 20.1052V19.4708H32.1469V20.1052H31.2005ZM31.0133 20.1052L29.4221 14.6036H30.1709L31.7413 20.1052H31.0133ZM34.7781 20.1052V19.4708H35.7037V20.1052H34.7781ZM35.1837 20.1052L36.5565 14.6036H37.2741L35.8701 20.1052H35.1837Z" fill="black"/>
</svg>