<svg aria-hidden="true" style="position: absolute; width: 0; height: 0; overflow: hidden;" version="1.1" xmlns="http://www.w3.org/2000/svg" xmlns:xlink="http://www.w3.org/1999/xlink">
<defs>
<symbol id="icon-logo" viewBox="0 0 21 32">
<path d="M19.429 7.579l0.017 0.014 0.947 0.788 0.001 14.603c-3.347 2.764-6.715 5.502-10.103 8.214-0.215-0.021-5.796-4.611-8.63-6.943l-0.079-0.065c-0.727-0.598-1.261-1.037-1.458-1.196l-0.010-14.606 10.093-8.27c0.329 0.047 6.63 5.298 9.222 7.459zM15.070 10.563l-0.011-0.018-0.002-0.003-0.016-0.025c-1.659-2.684-4.564-7.385-4.813-7.563l-5.856 9.331 0.013 6.478 1.178 1.932c0.516 0.073 1.036 0.157 1.557 0.242 1.058 0.171 2.124 0.343 3.175 0.43l1.402-0.21c1.082-0.164 2.165-0.327 3.249-0.472l1.181-1.835-0.001-6.583c-0.141-0.221-0.535-0.858-1.056-1.703zM16.564 13.049c0.412 0.515 0.766 1.147 1.109 1.759 0.099 0.176 0.197 0.351 0.295 0.521 0.049 0.084 0.098 0.168 0.147 0.249l-0.197 0.321-0.204 0.332c-0.178 0.288-0.357 0.576-0.538 0.863l-0.623 1.011c-0.001-0.486-0.005-0.974-0.009-1.461-0.010-1.199-0.020-2.4 0.020-3.595zM11.892 1.944c-0.484-0.425-1.079-0.947-1.435-1.099l0.011 0.479c0.009 0.376 0.018 0.753 0.021 1.129 1.86 3.002 3.736 5.995 5.627 8.978-0-0.092-0.004-0.235-0.009-0.411v-0.029c-0.023-0.84-0.063-2.369 0.151-2.594 0.006-0.006 0.012-0.012 0.018-0.017l0.016-0.013 0.016-0.013 0.189 0.083c0.146 0.664 0.111 1.7 0.079 2.623l-0.001 0.013-0.002 0.056c-0.013 0.385-0.024 0.747-0.021 1.052 0.249 0.416 0.504 0.83 0.759 1.243 0.443 0.719 0.887 1.438 1.299 2.173l-2.055 3.299 0.005 2.114v1.628l3.407 0.002-0.007-14.051c-2.497-2.101-5.019-4.172-7.566-6.213l-0.079-0.064-0.072-0.061c-0.106-0.090-0.225-0.195-0.353-0.307zM9.966 0.872l0.049 0.042c0.098 0.292 0.071 0.744 0.047 1.134-0.009 0.143-0.017 0.279-0.018 0.395l-5.684 9.071c0.001-0.14 0.006-0.288 0.011-0.442l0.005-0.141 0.011-0.275c0.029-0.685 0.060-1.422-0.016-1.998-0.021-0.162-0.070-0.22-0.195-0.314l-0.131 0.025c-0.199 0.309-0.142 2.222-0.111 3.264l0.009 0.322c0.003 0.094 0.004 0.173 0.005 0.232-0.682 1.115-1.355 2.235-2.019 3.361l2.023 3.318-0.008 1.897-0.007 1.878-3.397-0.005 0.013-14.039c2.024-1.746 4.111-3.43 6.196-5.113 1.076-0.868 2.151-1.736 3.217-2.612zM7.785 21.458c-0.639-0.114-1.278-0.228-1.913-0.279l0.491 0.789c1.31 2.102 2.623 4.21 3.876 6.344 0.635-1.024 1.264-2.053 1.886-3.084 0.281-0.454 0.56-0.909 0.839-1.364 0.552-0.902 1.105-1.804 1.676-2.693-0.356 0.050-0.779 0.123-1.23 0.201-1.118 0.193-2.404 0.415-3.245 0.392-0.79-0.022-1.585-0.164-2.381-0.305zM4.363 20.951l0.962 0.139c0.645 1.070 1.301 2.133 1.957 3.197l0.003 0.005 0.018 0.029c0.92 1.491 1.839 2.982 2.729 4.492-0.001 0.235 0 0.47 0.002 0.706 0.003 0.337 0.008 0.674 0.015 1.011l-1.918-1.57-7.24-5.906c0.812 0.011 1.626 0.009 2.439 0.006 0.343-0.001 0.687-0.002 1.029-0.002 0.019-0.701 0.006-1.404 0.005-2.106zM15.888 20.983l-0.036 0.003-0.666 0.102-4.711 7.666-0.018 1.768c0.304-0.247 0.607-0.494 0.912-0.74 0.381-0.308 0.764-0.615 1.147-0.92 2.384-1.913 4.748-3.849 7.093-5.81l-3.478 0.004c0.002-0.155 0.008-0.317 0.015-0.482l0.001-0.014c0.021-0.513 0.044-1.055-0.059-1.523-0.091-0.069-0.103-0.067-0.174-0.059l-0.027 0.003zM3.952 17.895l-0.001 0.158-0.503-0.822c-0.214-0.393-0.453-0.779-0.691-1.162-0.106-0.171-0.212-0.342-0.315-0.513 0.294-0.552 0.617-1.091 0.939-1.63l0.247-0.412c0.081-0.137 0.162-0.274 0.242-0.411 0.169 0.256 0.118 2.904 0.093 4.257-0.004 0.217-0.008 0.401-0.009 0.536zM15.67 20.518l0.087-0.156c0.154-0.276 0.308-0.552 0.507-0.797 0.018 0.253-0.001 0.598-0.046 0.806-0.25 0.092-0.351 0.124-0.548 0.148zM4.388 19.651c0.237 0.292 0.41 0.628 0.594 0.953-0.068-0.008-0.099-0.011-0.129-0.016-0.058-0.011-0.113-0.034-0.419-0.131-0.046-0.294-0.064-0.552-0.046-0.806z"></path>
<path d="M15.070 10.562c-0.207-0.334-0.434-0.701-0.672-1.088 0.235 0.379 0.457 0.74 0.661 1.070l0.011 0.018z"></path>
<path d="M16.115 11.432c-0-0.095-0.004-0.245-0.009-0.43v0.009c0.005 0.18 0.009 0.327 0.009 0.42z"></path>
<path d="M4.374 10.971c-0.007 0.189-0.013 0.372-0.015 0.543 0.001-0.14 0.006-0.288 0.011-0.442 0.001-0.033 0.003-0.068 0.004-0.101zM3.948 12.188c-0.001-0.117-0.007-0.312-0.014-0.554l0.009 0.322c0.003 0.094 0.004 0.173 0.005 0.232z"></path>
<path d="M16.134 22.959c0.003-0.129 0.009-0.262 0.014-0.398l-0.001 0.014c-0.005 0.131-0.011 0.258-0.013 0.383z"></path>
<path d="M3.868 13.101c-0.096 0.166-0.194 0.331-0.292 0.496l0.050-0.084c0.081-0.137 0.162-0.274 0.242-0.411zM3.95 18.052c0-0.166 0.008-0.538 0.017-1.008-0.002 0.111-0.004 0.216-0.006 0.315-0.006 0.32-0.011 0.567-0.011 0.694z"></path>
</symbol>
<symbol id="icon-Instagram" viewBox="0 0 32 32">
<path d="M15.998 6.161c3.206 0 3.585 0.014 4.846 0.071 1.172 0.052 1.804 0.248 2.226 0.412 0.558 0.216 0.961 0.478 1.378 0.895 0.422 0.422 0.679 0.82 0.9 1.378 0.164 0.422 0.361 1.059 0.412 2.226 0.056 1.266 0.071 1.645 0.071 4.847s-0.014 3.585-0.071 4.847c-0.052 1.172-0.248 1.804-0.412 2.227-0.216 0.558-0.478 0.961-0.895 1.377-0.422 0.422-0.82 0.679-1.378 0.9-0.422 0.164-1.060 0.361-2.226 0.412-1.266 0.056-1.645 0.071-4.847 0.071s-3.585-0.014-4.847-0.071c-1.172-0.052-1.804-0.248-2.226-0.412-0.558-0.216-0.961-0.478-1.378-0.895-0.422-0.422-0.679-0.82-0.9-1.378-0.164-0.422-0.361-1.060-0.412-2.226-0.056-1.266-0.071-1.645-0.071-4.847s0.014-3.585 0.071-4.847c0.052-1.172 0.248-1.804 0.412-2.226 0.216-0.558 0.478-0.961 0.895-1.378 0.422-0.422 0.82-0.679 1.378-0.9 0.422-0.164 1.059-0.361 2.226-0.412 1.261-0.056 1.641-0.071 4.847-0.071h0.001zM15.998 4.001c-3.258 0-3.665 0.014-4.945 0.071-1.275 0.056-2.151 0.262-2.91 0.558-0.792 0.309-1.462 0.717-2.127 1.387-0.67 0.666-1.078 1.336-1.387 2.123-0.295 0.764-0.502 1.636-0.558 2.91-0.056 1.285-0.071 1.692-0.071 4.949s0.014 3.665 0.071 4.945c0.056 1.275 0.262 2.151 0.558 2.91 0.31 0.792 0.717 1.462 1.387 2.127 0.665 0.665 1.336 1.078 2.123 1.383 0.764 0.295 1.636 0.502 2.91 0.558 1.279 0.056 1.687 0.071 4.945 0.071s3.666-0.014 4.945-0.071c1.275-0.056 2.151-0.262 2.91-0.558 0.787-0.305 1.458-0.717 2.123-1.383s1.078-1.336 1.383-2.123c0.295-0.764 0.502-1.635 0.558-2.91 0.056-1.279 0.071-1.687 0.071-4.945s-0.014-3.665-0.071-4.945c-0.056-1.275-0.262-2.151-0.558-2.91-0.295-0.797-0.703-1.467-1.373-2.133-0.665-0.665-1.336-1.078-2.123-1.383-0.764-0.295-1.635-0.502-2.91-0.558-1.284-0.061-1.692-0.075-4.949-0.075l-0.001 0.001z"></path>
<path d="M15.998 9.836c-3.402 0-6.163 2.76-6.163 6.163s2.76 6.163 6.163 6.163c3.403 0 6.163-2.76 6.163-6.163s-2.76-6.163-6.163-6.163zM15.998 19.997c-2.208 0-3.998-1.79-3.998-3.998s1.79-3.998 3.998-3.998c2.208 0 3.998 1.79 3.998 3.998s-1.79 3.998-3.998 3.998z"></path>
<path d="M23.843 9.592c0 0.795-0.644 1.439-1.439 1.439s-1.439-0.644-1.439-1.439 0.644-1.439 1.439-1.439c0.795 0 1.439 0.644 1.439 1.439z"></path>
</symbol>
<symbol id="icon-leaf" viewBox="0 0 32 32">
<path d="M29.173 2.867l-1.6 0.533c-2.742 0.953-5.67 1.245-8.547 0.853-3.023-0.469-6.116-0.052-8.907 1.2-1.479 0.63-2.778 1.62-3.777 2.88s-1.667 2.75-1.943 4.334c-0.281 1.523-0.252 3.088 0.085 4.599s0.975 2.941 1.875 4.201c-0.080 0.28-0.16 0.56-0.227 0.84-0.542 2.303-0.81 4.661-0.8 7.027h2.667c0.125-1.936 0.388-3.861 0.787-5.76 1.85 0.999 3.924 1.508 6.027 1.48 1.961-0.001 3.901-0.396 5.707-1.16 10.147-4.333 8.813-18.747 8.813-19.347l-0.16-1.68zM19.48 21.44c-3.48 1.48-7.64 1.227-9.973-0.6 0.394-1.319 0.936-2.589 1.613-3.787 0.527-0.862 1.149-1.663 1.853-2.387 0.72-0.732 1.531-1.368 2.413-1.893 1.823-1.090 3.844-1.806 5.947-2.107v-1.333c-2.419-0.084-4.823 0.41-7.013 1.44-2.239 1.093-4.139 2.775-5.493 4.867-0.502 0.799-0.948 1.632-1.333 2.493-0.618-1.581-0.793-3.3-0.507-4.973 0.188-1.171 0.671-2.276 1.403-3.209s1.69-1.664 2.784-2.125c1.594-0.745 3.334-1.128 5.093-1.12 0.827 0 1.64 0.080 2.493 0.147 2.672 0.345 5.386 0.187 8-0.467-0.093 3.68-0.76 12.28-7.28 15.053z"></path>
</symbol>
<symbol id="icon-LinkedIn" viewBox="0 0 32 32">
<path d="M25.75 4h-19.5c-1.237 0-2.25 1.013-2.25 2.25v19.5c0 1.237 1.013 2.25 2.25 2.25h19.5c1.237 0 2.25-1.013 2.25-2.25v-19.5c0-1.237-1.013-2.25-2.25-2.25zM13 23.5h-3v-10.5h3v10.5zM11.5 11.5c-0.829 0-1.5-0.671-1.5-1.5s0.671-1.5 1.5-1.5c0.829 0 1.5 0.671 1.5 1.5s-0.671 1.5-1.5 1.5zM23.5 23.5h-3v-6c0-0.829-0.671-1.5-1.5-1.5s-1.5 0.671-1.5 1.5v6h-3v-10.5h3v1.861c0.619-0.848 1.565-1.861 2.625-1.861 1.866 0 3.375 1.679 3.375 3.75v6.75z"></path>
</symbol>
<symbol id="icon-map" viewBox="0 0 32 32">
<path d="M16 18.667c2.941 0 5.333-2.392 5.333-5.333s-2.392-5.333-5.333-5.333c-2.941 0-5.333 2.392-5.333 5.333s2.392 5.333 5.333 5.333zM16 10.667c1.471 0 2.667 1.196 2.667 2.667s-1.196 2.667-2.667 2.667c-1.471 0-2.667-1.196-2.667-2.667s1.196-2.667 2.667-2.667z"></path>
<path d="M15.227 29.085c0.226 0.161 0.496 0.248 0.773 0.248s0.548-0.087 0.773-0.248c0.405-0.287 9.932-7.165 9.893-15.752 0-5.881-4.785-10.667-10.667-10.667s-10.667 4.785-10.667 10.66c-0.039 8.593 9.488 15.472 9.893 15.759zM16 5.333c4.412 0 8 3.588 8 8.007 0.028 5.917-5.851 11.231-8 12.973-2.148-1.744-8.028-7.059-8-12.98 0-4.412 3.588-8 8-8z"></path>
</symbol>
<symbol id="icon-menu" viewBox="0 0 32 32">
<path d="M5.333 8h21.333v2.667h-21.333v-2.667zM5.333 14.667h21.333v2.667h-21.333v-2.667zM5.333 21.333h21.333v2.667h-21.333v-2.667z"></path>
</symbol>
<symbol id="icon-phone" viewBox="0 0 32 32">
<path d="M23.61 16.391c-0.124-0.124-0.271-0.222-0.432-0.289s-0.335-0.102-0.51-0.102c-0.175 0-0.348 0.035-0.51 0.102s-0.309 0.165-0.432 0.289l-2.125 2.125c-0.985-0.293-2.824-0.96-3.989-2.125s-1.832-3.004-2.125-3.989l2.125-2.125c0.124-0.124 0.222-0.271 0.289-0.432s0.102-0.335 0.102-0.51c0-0.175-0.035-0.348-0.102-0.51s-0.165-0.309-0.289-0.432l-5.333-5.333c-0.124-0.124-0.271-0.222-0.432-0.289s-0.335-0.102-0.51-0.102c-0.175 0-0.348 0.035-0.51 0.102s-0.309 0.165-0.432 0.289l-3.616 3.616c-0.507 0.507-0.792 1.203-0.781 1.913 0.031 1.899 0.533 8.493 5.731 13.691s11.792 5.699 13.692 5.731h0.037c0.704 0 1.369-0.277 1.873-0.781l3.616-3.616c0.124-0.124 0.222-0.271 0.289-0.432s0.102-0.335 0.102-0.51c0-0.175-0.035-0.349-0.102-0.51s-0.165-0.309-0.289-0.432l-5.333-5.335zM23.44 25.34c-1.664-0.028-7.357-0.475-11.831-4.949-4.488-4.488-4.923-10.201-4.949-11.832l2.673-2.673 3.448 3.448-1.724 1.724c-0.157 0.157-0.272 0.35-0.335 0.562s-0.073 0.437-0.027 0.654c0.032 0.153 0.815 3.789 3.028 6.003s5.849 2.996 6.003 3.028c0.217 0.047 0.442 0.038 0.654-0.025s0.406-0.179 0.562-0.336l1.725-1.724 3.448 3.448-2.675 2.673z"></path>
</symbol>
<symbol id="icon-star-fiiled" viewBox="0 0 32 32">
<path d="M14.513 1.037c0.55-1.383 2.423-1.383 2.973 0l3.246 8.164c0.232 0.583 0.756 0.982 1.358 1.032l8.426 0.707c1.427 0.12 2.006 1.983 0.919 2.958l-6.419 5.752c-0.459 0.411-0.659 1.056-0.519 1.67l1.961 8.6c0.332 1.457-1.183 2.609-2.405 1.828l-7.213-4.609c-0.515-0.329-1.163-0.329-1.679 0l-7.214 4.609c-1.222 0.781-2.738-0.371-2.405-1.828l1.961-8.6c0.14-0.614-0.060-1.259-0.519-1.67l-6.42-5.752c-1.088-0.975-0.509-2.838 0.919-2.958l8.426-0.707c0.602-0.050 1.126-0.449 1.358-1.032l3.246-8.164z"></path>
</symbol>
<symbol id="icon-star-outline" viewBox="0 0 32 32">
<path stroke-linejoin="miter" stroke-linecap="butt" stroke-miterlimit="4" stroke-width="2.6667" d="M16 1.333c0.050 0 0.095 0.014 0.131 0.038 0.031 0.020 0.078 0.062 0.116 0.159l3.246 8.164c0.41 1.030 1.355 1.772 2.486 1.867l8.426 0.707c0.066 0.005 0.104 0.026 0.135 0.053 0.038 0.033 0.080 0.090 0.105 0.172 0.052 0.168 0.008 0.314-0.1 0.411l-6.419 5.751c-0.829 0.743-1.174 1.887-0.93 2.96l1.962 8.6c0.043 0.187-0.028 0.32-0.128 0.396-0.051 0.039-0.098 0.052-0.13 0.055-0.024 0.002-0.065-0.001-0.13-0.043l-7.213-4.608c-0.953-0.609-2.162-0.609-3.115 0l-7.213 4.608c-0.066 0.042-0.106 0.045-0.13 0.043-0.032-0.002-0.079-0.016-0.13-0.055-0.1-0.076-0.17-0.209-0.128-0.396l1.962-8.6c0.245-1.073-0.1-2.216-0.93-2.96l-6.419-5.751c-0.108-0.097-0.152-0.244-0.1-0.411 0.025-0.082 0.068-0.139 0.105-0.172 0.031-0.027 0.070-0.048 0.135-0.053l8.426-0.707c1.13-0.095 2.076-0.837 2.486-1.867l3.246-8.164c0.038-0.096 0.085-0.139 0.116-0.159 0.036-0.024 0.081-0.038 0.131-0.038z"></path>
</symbol>
<symbol id="icon-X" viewBox="0 0 32 32">
<path d="M22.901 5.657h3.68l-8.040 9.037 9.459 12.297h-7.406l-5.801-7.458-6.637 7.458h-3.682l8.6-9.666-9.074-11.668h7.594l5.243 6.817 6.064-6.817zM21.61 24.824h2.039l-13.163-17.115h-2.188l13.312 17.115z"></path>
</symbol>
<symbol id="icon-x-close" viewBox="0 0 32 32">
<path d="M21.589 8.459l-5.657 5.656-5.656-5.656-1.885 1.885 5.656 5.656-5.656 5.656 1.885 1.885 5.656-5.656 5.657 5.656 1.885-1.885-5.656-5.656 5.656-5.656-1.885-1.885z"></path>
</symbol>
<symbol id="icon-Youtube" viewBox="0 0 32 32">
<path d="M28.791 9.604c-0.152-0.563-0.449-1.077-0.861-1.49s-0.925-0.711-1.489-0.864c-2.088-0.573-10.441-0.583-10.441-0.583s-8.352-0.009-10.441 0.539c-0.563 0.16-1.075 0.462-1.487 0.878s-0.711 0.929-0.867 1.493c-0.551 2.088-0.556 6.419-0.556 6.419s-0.005 4.352 0.541 6.419c0.307 1.143 1.207 2.045 2.351 2.353 2.109 0.573 10.44 0.583 10.44 0.583s8.353 0.009 10.441-0.537c0.563-0.153 1.077-0.45 1.49-0.862s0.712-0.925 0.866-1.488c0.552-2.087 0.556-6.416 0.556-6.416s0.027-4.353-0.543-6.441zM13.328 20.007l0.007-8 6.943 4.007-6.949 3.993z"></path>
</symbol>
<symbol id="icon-Facebook" viewBox="0 0 32 32">
<path d="M29.333 16.405c0-7.409-5.969-13.415-13.333-13.415s-13.333 6.006-13.333 13.415c0 6.696 4.876 12.245 11.25 13.252v-9.374h-3.385v-3.878h3.385v-2.955c0-3.362 1.991-5.219 5.036-5.219 1.459 0 2.985 0.262 2.985 0.262v3.301h-1.681c-1.656 0-2.173 1.034-2.173 2.095v2.516h3.698l-0.591 3.878h-3.107v9.374c6.374-1.006 11.25-6.556 11.25-13.252z"></path>
</symbol>
<symbol id="icon-envelope" viewBox="0 0 32 32">
<path d="M26.667 5.333h-21.333c-1.471 0-2.667 1.196-2.667 2.667v16c0 1.471 1.196 2.667 2.667 2.667h21.333c1.471 0 2.667-1.196 2.667-2.667v-16c0-1.471-1.196-2.667-2.667-2.667zM26.667 8v0.681l-10.667 8.297-10.667-8.296v-0.683h21.333zM5.333 24v-11.941l9.848 7.66c0.233 0.183 0.522 0.283 0.819 0.283s0.585-0.1 0.819-0.283l9.848-7.66 0.003 11.941h-21.336z"></path>
</symbol>
<symbol id="icon-donate-heart" viewBox="0 0 32 32">
<path d="M5.333 28h12.827c0.769 0 1.53-0.166 2.229-0.487s1.32-0.791 1.821-1.375l6.803-7.936c0.142-0.166 0.242-0.364 0.29-0.578s0.042-0.435-0.016-0.646c-0.058-0.211-0.167-0.404-0.318-0.563s-0.338-0.278-0.545-0.347l-2.624-0.875c-0.634-0.206-1.309-0.253-1.966-0.136s-1.274 0.394-1.798 0.806l-4.247 3.396-0.823-1.647c-0.441-0.888-1.121-1.634-1.964-2.155s-1.815-0.795-2.806-0.792h-6.861c-1.471 0-2.667 1.196-2.667 2.667v8c0 1.471 1.196 2.667 2.667 2.667zM5.333 17.333h6.861c1.017 0 1.931 0.564 2.385 1.473l0.596 1.193h-5.843v2.667h8.019c0.205-0.003 0.407-0.053 0.589-0.147l0.004-0.001 0.005-0.003h0.004l0.003-0.001h0.005l0.001-0.001c0.012 0.004 0.004-0.001 0.004-0.001 0.013 0 0.003-0.001 0.003-0.001h0.001l0.003-0.001 0.004-0.001 0.005-0.003 0.004-0.001 0.003-0.001c0.004 0 0.003-0.001 0.003-0.001l0.004-0.003 0.005-0.003 0.004-0.001 0.003-0.001h0.001l0.003-0.001 0.004-0.001 0.003-0.001c0.012-0.001 0.004-0.001 0.004-0.001l0.003-0.001c0.051-0.031 0.1-0.066 0.147-0.104l5.528-4.423c0.349-0.277 0.831-0.364 1.253-0.223l0.743 0.248-5.511 6.431c-0.253 0.288-0.565 0.519-0.915 0.677s-0.728 0.24-1.112 0.241h-12.827v-8zM21.311 2.667c-0.217 0.003-1.341 0.052-2.644 0.94-1.268-0.864-2.365-0.933-2.624-0.939l-0.040-0.001h-0.005c-1.068 0-2.073 0.417-2.825 1.171-0.755 0.756-1.172 1.76-1.172 2.829s0.417 2.073 1.148 2.805l4.552 4.781c0.125 0.13 0.275 0.233 0.442 0.304s0.345 0.107 0.525 0.107c0.181-0 0.359-0.037 0.525-0.107s0.316-0.175 0.441-0.305l4.528-4.757c0.756-0.755 1.172-1.759 1.172-2.828s-0.417-2.073-1.171-2.828c-0.37-0.373-0.811-0.668-1.296-0.869s-1.006-0.304-1.531-0.303h-0.025zM22.667 6.667c0 0.356-0.139 0.691-0.415 0.967l-3.585 3.767-3.609-3.791c-0.252-0.252-0.391-0.587-0.391-0.943s0.139-0.691 0.392-0.944c0.241-0.245 0.569-0.385 0.913-0.389 0.033 0.001 0.669 0.043 1.423 0.647 0.108 0.087 0.217 0.185 0.329 0.296l0.943 0.943 0.943-0.943c0.112-0.111 0.221-0.209 0.329-0.296 0.705-0.567 1.301-0.637 1.403-0.645 0.174-0 0.346 0.034 0.506 0.101s0.306 0.165 0.428 0.288c0.252 0.252 0.391 0.587 0.391 0.943z"></path>
</symbol>
<symbol id="icon-book" viewBox="0 0 32 32">
<path d="M8 29.333h20v-2.667h-19.984c-0.616-0.016-1.349-0.26-1.349-1.333s0.733-1.317 1.349-1.333h19.984v-18.667c0-1.471-1.196-2.667-2.667-2.667h-17.333c-1.608 0-4 1.065-4 4v18.667c0 2.935 2.392 4 4 4zM6.667 6.667c0-1.073 0.733-1.317 1.333-1.333h17.333v16h-18.667v-14.667z"></path>
<path d="M10.667 8h12v2.667h-12v-2.667z"></path>
</symbol>
</defs>
</svg>
