<svg width="105" height="33" viewBox="0 0 105 33" fill="none" xmlns="http://www.w3.org/2000/svg">
<symbol id="icon-logo-text" viewBox="0 0 75 32">
  <path fill-rule="evenodd" clip-rule="evenodd" d="M20.1281 7.86144L20.1463 7.87646L20.3292 8.0288L20.4762 8.15143L21.1267 8.69257L21.1279 23.8095C17.6632 26.6704 14.1767 29.5051 10.6694 32.3129C10.4468 32.2907 4.66991 27.5396 1.73534 25.1259L1.65339 25.0585C0.901301 24.4401 0.348499 23.9854 0.144071 23.8204L0.133789 8.70083L10.5817 0.140259C10.9222 0.188493 17.4445 5.62441 20.1281 7.86144ZM15.6165 10.9499L15.6047 10.931L15.6029 10.9276L15.5865 10.9013C13.8695 8.12304 10.8617 3.25671 10.6044 3.07203L4.54199 12.7314L4.5556 19.437L5.77461 21.4372C6.30836 21.5133 6.84665 21.6002 7.38675 21.6875C8.48237 21.8645 9.58525 22.0427 10.673 22.1331L11.3308 22.035L12.124 21.9153C13.2444 21.7459 14.3651 21.5765 15.4877 21.4264L16.7106 19.527L16.71 12.7124C16.5642 12.4837 16.1566 11.824 15.6165 10.9499ZM17.163 13.5236C17.5897 14.0569 17.9562 14.7108 18.3112 15.3444C18.4138 15.5269 18.5151 15.7076 18.6167 15.8834C18.6672 15.9708 18.7177 16.0569 18.7685 16.1414L18.565 16.4736L18.3536 16.8172C18.1691 17.1155 17.9837 17.4132 17.7968 17.7101L17.1515 18.7571C17.1509 18.2537 17.1467 17.7494 17.1424 17.2447C17.1322 16.0036 17.1222 14.7603 17.163 13.5236ZM12.326 2.02833C11.8246 1.58792 11.2095 1.04794 10.8406 0.890571L10.8517 1.38682C10.8608 1.77653 10.8699 2.16632 10.8732 2.55593C12.7989 5.66372 14.7407 8.76165 16.6985 11.8495C16.6982 11.7545 16.694 11.6059 16.6888 11.4237V11.4144V11.4048V11.3998V11.3935C16.6655 10.5235 16.6232 8.9413 16.8452 8.70812C16.8509 8.70175 16.8573 8.69591 16.8642 8.69028L16.8809 8.67675L16.8975 8.66322L17.0931 8.7488C17.244 9.4363 17.2078 10.5088 17.1754 11.4643L17.1748 11.4783L17.173 11.5367C17.16 11.9348 17.1479 12.3101 17.1515 12.6255C17.4089 13.0562 17.6729 13.4843 17.9372 13.9126C18.3962 14.6567 18.8556 15.4014 19.2814 16.1616L17.1545 19.5767L17.1597 21.7654V23.4507L20.687 23.4526L20.6794 8.90722C18.0941 6.73217 15.4834 4.58812 12.847 2.47561L12.7657 2.40902L12.691 2.34614C12.5815 2.25292 12.4578 2.14405 12.326 2.02833ZM10.3328 0.918128L10.3833 0.961429C10.4852 1.26406 10.4568 1.73123 10.4323 2.13576C10.4232 2.28422 10.4148 2.42425 10.4132 2.54461L4.52929 11.9348C4.5308 11.7896 4.53504 11.6363 4.54078 11.4776L4.54623 11.3321L4.55802 11.0476C4.58796 10.338 4.62001 9.57583 4.54109 8.97912C4.51901 8.81193 4.46911 8.75154 4.33968 8.65369L4.2036 8.67947C3.99796 8.99938 4.05693 10.9795 4.08899 12.0582L4.09836 12.3919C4.10108 12.4897 4.1029 12.5711 4.1035 12.6321C3.39738 13.7862 2.70093 14.9461 2.01356 16.1114L4.10773 19.5456L4.09897 21.5095L4.09201 23.4532L0.575305 23.4481L0.588611 8.91497C2.68369 7.10774 4.8441 5.36392 7.00269 3.62173C8.11646 2.72294 9.22962 1.82456 10.3328 0.918128ZM8.07533 22.229C7.41366 22.1111 6.7526 21.9932 6.09486 21.94L6.60351 22.7566C7.95951 24.9328 9.31883 27.115 10.6156 29.3241C11.273 28.2636 11.9241 27.1993 12.5676 26.1312C12.8588 25.6617 13.1476 25.1904 13.4364 24.719C14.0083 23.7852 14.5807 22.8512 15.1719 21.931C14.8036 21.9832 14.3654 22.0587 13.8991 22.1392C12.7418 22.3389 11.4103 22.5687 10.54 22.545C9.72255 22.5227 8.89879 22.3758 8.07533 22.229ZM4.53262 21.7039L5.52875 21.8479C6.19647 22.9554 6.87568 24.0562 7.55489 25.157L7.55761 25.1618L7.57575 25.1914C8.52773 26.735 9.47971 28.2788 10.4005 29.8415C10.3999 30.0849 10.4005 30.3284 10.4027 30.5719C10.4054 30.921 10.4105 31.2701 10.4184 31.6189L8.43278 29.9937L0.93759 23.8798C1.77859 23.8915 2.62049 23.889 3.46209 23.8865C3.81742 23.8854 4.17275 23.8843 4.52778 23.8843C4.54744 23.1584 4.53413 22.4305 4.53262 21.7039ZM16.4632 21.7369L16.426 21.7404L15.7365 21.8466L10.8602 29.7826L10.8412 31.6132C11.1554 31.357 11.4699 31.1018 11.7853 30.8473C12.1799 30.5286 12.5758 30.2111 12.9722 29.8946C15.4399 27.9144 17.8876 25.9099 20.3153 23.8805L16.7151 23.8843C16.7172 23.7236 16.7239 23.556 16.7309 23.385L16.7318 23.3703C16.7538 22.8394 16.7771 22.2778 16.671 21.7941C16.5763 21.7231 16.5642 21.7246 16.4914 21.7335L16.4632 21.7369ZM4.10653 18.5403L4.10501 18.7034L3.58396 17.8521C3.3626 17.4452 3.11523 17.0461 2.86877 16.6489C2.75899 16.4718 2.64952 16.2949 2.54247 16.1179C2.84669 15.547 3.18085 14.9885 3.51471 14.4309L3.76995 14.004C3.85401 13.8623 3.93778 13.7204 4.02034 13.5782C4.19483 13.8438 4.14281 16.5845 4.1162 17.9852C4.11197 18.21 4.10834 18.4003 4.10653 18.5403ZM16.237 21.2555L16.3274 21.0941C16.4865 20.8089 16.6465 20.5225 16.8527 20.2685C16.8712 20.5308 16.8518 20.8879 16.8046 21.1026C16.5461 21.1975 16.4412 21.2312 16.237 21.2555ZM4.55863 20.3582C4.80388 20.6601 4.98321 21.0081 5.17403 21.3451C5.10387 21.3368 5.07181 21.3342 5.04036 21.3281C4.98048 21.3166 4.92303 21.2926 4.60641 21.1923C4.55863 20.8879 4.53988 20.6205 4.55863 20.3582Z" fill="black" />
  <path d="M15.6047 10.931L15.6165 10.9499C16.1566 11.824 16.5642 12.4837 16.71 12.7124L16.7106 19.527L15.4877 21.4264C14.3651 21.5765 13.2444 21.7459 12.124 21.9153L11.3308 22.035L10.673 22.1331C9.58525 22.0427 8.48237 21.8645 7.38675 21.6875C6.84665 21.6002 6.30836 21.5133 5.77461 21.4372L4.5556 19.437L4.54199 12.7314L10.6044 3.07203M15.6047 10.931L15.6029 10.9276L15.5865 10.9013C13.8695 8.12304 10.8617 3.25671 10.6044 3.07203M15.6047 10.931C15.1759 10.2369 14.6645 9.40941 14.135 8.55603C12.5486 6.00002 10.7979 3.21099 10.6044 3.07203M16.6985 11.8495C14.7407 8.76165 12.7989 5.66372 10.8732 2.55593C10.8699 2.16632 10.8608 1.77653 10.8517 1.38682L10.8406 0.890571C11.2095 1.04794 11.8246 1.58792 12.326 2.02833C12.4578 2.14405 12.5815 2.25292 12.691 2.34614L12.7657 2.40902L12.847 2.47561C15.4834 4.58812 18.0941 6.73217 20.6794 8.90722L20.687 23.4526L17.1597 23.4507V21.7654L17.1545 19.5767L19.2814 16.1616C18.8556 15.4014 18.3962 14.6567 17.9372 13.9126C17.6729 13.4843 17.4089 13.0562 17.1515 12.6255M16.6985 11.8495C16.6982 11.7545 16.694 11.6059 16.6888 11.4237M16.6985 11.8495C16.6985 11.848 16.6985 11.8465 16.6985 11.845C16.6985 11.7498 16.694 11.6031 16.6888 11.4237M16.6888 11.4237V11.4144V11.4048V11.3998V11.3935C16.6655 10.5235 16.6232 8.9413 16.8452 8.70812C16.8509 8.70175 16.8573 8.69591 16.8642 8.69028L16.8809 8.67675L16.8975 8.66322L17.0931 8.7488C17.244 9.4363 17.2078 10.5088 17.1754 11.4643M17.1754 11.4643L17.1748 11.4783L17.173 11.5367C17.16 11.9348 17.1479 12.3101 17.1515 12.6255M17.1754 11.4643C17.1733 11.5267 17.1715 11.5895 17.1693 11.6506C17.1579 12.0063 17.1482 12.3403 17.1515 12.6255M5.04036 21.3281C5.07181 21.3342 5.10387 21.3368 5.17403 21.3451C4.98321 21.0081 4.80388 20.6601 4.55863 20.3582C4.53988 20.6205 4.55863 20.8879 4.60641 21.1923M5.04036 21.3281C4.98048 21.3166 4.92303 21.2926 4.60641 21.1923M5.04036 21.3281C4.98109 21.3168 4.92545 21.2935 4.6182 21.196C4.61427 21.1948 4.61034 21.1935 4.60641 21.1923M20.1281 7.86144L20.1463 7.87646L20.3292 8.0288L20.4762 8.15143L21.1267 8.69257L21.1279 23.8095C17.6632 26.6704 14.1767 29.5051 10.6694 32.3129C10.4468 32.2907 4.66991 27.5396 1.73534 25.1259L1.65339 25.0585C0.901301 24.4401 0.348499 23.9854 0.144071 23.8204L0.133789 8.70083L10.5817 0.140259C10.9222 0.188493 17.4445 5.62441 20.1281 7.86144ZM17.163 13.5236C17.5897 14.0569 17.9562 14.7108 18.3112 15.3444C18.4138 15.5269 18.5151 15.7076 18.6167 15.8834C18.6672 15.9708 18.7177 16.0569 18.7685 16.1414L18.565 16.4736L18.3536 16.8172C18.1691 17.1155 17.9837 17.4132 17.7968 17.7101L17.1515 18.7571C17.1509 18.2537 17.1467 17.7494 17.1424 17.2447C17.1322 16.0036 17.1222 14.7603 17.163 13.5236ZM10.3328 0.918128L10.3833 0.961429C10.4852 1.26406 10.4568 1.73123 10.4323 2.13576C10.4232 2.28422 10.4148 2.42425 10.4132 2.54461L4.52929 11.9348C4.5308 11.7896 4.53504 11.6363 4.54078 11.4776L4.54623 11.3321L4.55802 11.0476C4.58796 10.338 4.62001 9.57583 4.54109 8.97912C4.51901 8.81193 4.46911 8.75154 4.33968 8.65369L4.2036 8.67947C3.99796 8.99938 4.05693 10.9795 4.08899 12.0582L4.09836 12.3919C4.10108 12.4897 4.1029 12.5711 4.1035 12.6321C3.39738 13.7862 2.70093 14.9461 2.01356 16.1114L4.10773 19.5456L4.09897 21.5095L4.09201 23.4532L0.575305 23.4481L0.588611 8.91497C2.68369 7.10774 4.8441 5.36392 7.00269 3.62173C8.11646 2.72294 9.22962 1.82456 10.3328 0.918128ZM8.07533 22.229C7.41366 22.1111 6.7526 21.9932 6.09486 21.94L6.60351 22.7566C7.95951 24.9328 9.31883 27.115 10.6156 29.3241C11.273 28.2636 11.9241 27.1993 12.5676 26.1312C12.8588 25.6617 13.1476 25.1904 13.4364 24.719C14.0083 23.7852 14.5807 22.8512 15.1719 21.931C14.8036 21.9832 14.3654 22.0587 13.8991 22.1392C12.7418 22.3389 11.4103 22.5687 10.54 22.545C9.72255 22.5227 8.89879 22.3758 8.07533 22.229ZM4.53262 21.7039L5.52875 21.8479C6.19647 22.9554 6.87568 24.0562 7.55489 25.157L7.55761 25.1618L7.57575 25.1914C8.52773 26.735 9.47971 28.2788 10.4005 29.8415C10.3999 30.0849 10.4005 30.3284 10.4027 30.5719C10.4054 30.921 10.4105 31.2701 10.4184 31.6189L8.43278 29.9937L0.93759 23.8798C1.77859 23.8915 2.62049 23.889 3.46209 23.8865C3.81742 23.8854 4.17275 23.8843 4.52778 23.8843C4.54744 23.1584 4.53413 22.4305 4.53262 21.7039ZM16.4632 21.7369L16.426 21.7404L15.7365 21.8466L10.8602 29.7826L10.8412 31.6132C11.1554 31.357 11.4699 31.1018 11.7853 30.8473C12.1799 30.5286 12.5758 30.2111 12.9722 29.8946C15.4399 27.9144 17.8876 25.9099 20.3153 23.8805L16.7151 23.8843C16.7172 23.7236 16.7239 23.556 16.7309 23.3851L16.7318 23.3703C16.7538 22.8394 16.7771 22.2778 16.671 21.7941C16.5763 21.7231 16.5642 21.7246 16.4914 21.7335L16.4632 21.7369ZM4.10653 18.5403L4.10501 18.7034L3.58396 17.8521C3.3626 17.4452 3.11523 17.0461 2.86877 16.6489C2.75899 16.4718 2.64952 16.2949 2.54247 16.1179C2.84669 15.547 3.18085 14.9885 3.51471 14.4309L3.76995 14.004C3.85401 13.8623 3.93778 13.7204 4.02034 13.5782C4.19483 13.8438 4.14281 16.5845 4.1162 17.9852C4.11197 18.21 4.10834 18.4003 4.10653 18.5403ZM16.237 21.2555L16.3274 21.0941C16.4865 20.8089 16.6465 20.5225 16.8527 20.2685C16.8712 20.5308 16.8518 20.8879 16.8046 21.1026C16.5461 21.1975 16.4412 21.2312 16.237 21.2555Z" stroke="black" stroke-width="0.266667" />
  <path fill-rule="evenodd" clip-rule="evenodd" d="M15.6161 10.9498C15.402 10.6036 15.1673 10.2238 14.9199 9.82373C15.1628 10.2165 15.3935 10.5898 15.6043 10.9309L15.6161 10.9498Z" fill="black" stroke="black" stroke-width="0.266667" />
  <path fill-rule="evenodd" clip-rule="evenodd" d="M16.6982 11.8494C16.6979 11.7511 16.6936 11.5955 16.6885 11.4047V11.4143C16.6936 11.6007 16.6979 11.7528 16.6982 11.8494Z" fill="black" />
  <path d="M16.6885 11.4143V11.4047C16.6936 11.5955 16.6979 11.7511 16.6982 11.8494C16.6979 11.7528 16.6936 11.6007 16.6885 11.4143ZM16.6885 11.4143V11.4236C16.6936 11.603 16.6982 11.7497 16.6982 11.8448" stroke="black" stroke-width="0.266667" />
  <path fill-rule="evenodd" clip-rule="evenodd" d="M4.5446 11.3729C4.53704 11.5689 4.53099 11.7578 4.52917 11.9347C4.53069 11.7895 4.53492 11.6362 4.54067 11.4776C4.54187 11.4432 4.54339 11.4077 4.5446 11.3729ZM4.10338 12.632C4.10248 12.5108 4.09643 12.3088 4.08887 12.0581L4.09824 12.3918C4.10096 12.4896 4.10278 12.571 4.10338 12.632Z" fill="black" stroke="black" stroke-width="0.266667" />
  <path fill-rule="evenodd" clip-rule="evenodd" d="M16.7168 23.7819C16.7201 23.6482 16.7259 23.5103 16.7316 23.3702L16.7307 23.385C16.7253 23.5204 16.7198 23.6525 16.7168 23.7819Z" fill="black" />
  <path d="M16.7307 23.385L16.7316 23.3702C16.7259 23.5103 16.7201 23.6482 16.7168 23.7819C16.7198 23.6525 16.7253 23.5204 16.7307 23.385ZM16.7307 23.385C16.7271 23.4723 16.7234 23.5582 16.7207 23.6432C16.7192 23.6864 16.718 23.7297 16.7171 23.7721" stroke="black" stroke-width="0.266667" />
  <path fill-rule="evenodd" clip-rule="evenodd" d="M4.02018 13.5781C3.92069 13.7495 3.81968 13.9204 3.71777 14.0911L3.76979 14.0038C3.85386 13.8621 3.93762 13.7203 4.02018 13.5781ZM4.10486 18.7032C4.10486 18.5319 4.11302 18.1464 4.12209 17.6594C4.11998 17.7741 4.11786 17.8832 4.11604 17.9851C4.10969 18.3161 4.10486 18.5722 4.10486 18.7032Z" fill="black" stroke="black" stroke-width="0.266667" />
  <path d="M69.7602 30.1178V29.1173H70.7757C71.1241 29.1173 71.4228 29.0725 71.6717 28.9829C71.9206 28.9033 72.1296 28.7589 72.2989 28.5498C72.4681 28.3408 72.6125 28.0521 72.7319 27.6837L75.3901 19.1418H76.4802L73.7026 27.9973C73.5433 28.505 73.3243 28.9132 73.0455 29.2218C72.7668 29.5404 72.4333 29.7694 72.045 29.9088C71.6567 30.0482 71.2137 30.1178 70.7159 30.1178H69.7602ZM72.3287 26.8474V25.9066H73.7474V26.8474H72.3287ZM72.1943 26.8474L69.3271 19.1418H70.477L73.2397 26.8474H72.1943Z" fill="black" />
  <path d="M64.3262 27.0416V19.1418H65.2222V22.4421H65.1326C65.1326 21.2873 65.3864 20.4361 65.8942 19.8885C66.4019 19.331 67.1983 19.0522 68.2835 19.0522H68.5374V20.0677H68.0744C67.2183 20.0677 66.5662 20.2917 66.1182 20.7397C65.6702 21.1778 65.4462 21.8249 65.4462 22.681V27.0416H64.3262Z" fill="black" />
  <path d="M60.4526 27.0416V16.1403H61.5726V27.0416H60.4526ZM59.3027 17.0512V16.1403H61.5726V17.0512H59.3027Z" fill="black" />
  <path d="M54.7273 27.2954C54.0503 27.2954 53.4629 27.181 52.9651 26.952C52.4674 26.713 52.0592 26.3994 51.7406 26.0112C51.422 25.613 51.1831 25.1699 51.0238 24.6821C50.8745 24.1943 50.7998 23.6915 50.7998 23.1738V22.9648C50.7998 22.457 50.8745 21.9593 51.0238 21.4714C51.1831 20.9836 51.422 20.5456 51.7406 20.1573C52.0592 19.769 52.4574 19.4604 52.9353 19.2314C53.4231 18.9925 53.9906 18.873 54.6377 18.873C55.464 18.873 56.1509 19.0572 56.6985 19.4256C57.256 19.7939 57.6741 20.2668 57.9529 20.8442C58.2316 21.4117 58.371 22.024 58.371 22.681V23.2634H51.3075V22.3973H57.5945L57.3107 22.8304C57.3107 22.243 57.2062 21.7303 56.9971 21.2922C56.798 20.8442 56.4994 20.4958 56.1011 20.2469C55.7129 19.9881 55.225 19.8586 54.6377 19.8586C54.0204 19.8586 53.5077 20.003 53.0995 20.2917C52.6914 20.5804 52.3827 20.9637 52.1737 21.4416C51.9746 21.9194 51.875 22.462 51.875 23.0693C51.875 23.6666 51.9746 24.2142 52.1737 24.712C52.3827 25.1998 52.6963 25.5881 53.1145 25.8768C53.5426 26.1655 54.0802 26.3098 54.7273 26.3098C55.4142 26.3098 55.9717 26.1555 56.3998 25.8469C56.8279 25.5283 57.0917 25.155 57.1913 24.7269H58.2366C58.137 25.2546 57.928 25.7125 57.6094 26.1008C57.2908 26.4791 56.8876 26.7728 56.3998 26.9818C55.912 27.1909 55.3545 27.2954 54.7273 27.2954Z" fill="black" />
  <path d="M34.3786 27.9345C33.7017 27.9345 33.1143 27.82 32.6165 27.591C32.1187 27.3521 31.7105 27.0385 31.392 26.6502C31.0734 26.252 30.8345 25.809 30.6752 25.3212C30.5258 24.8333 30.4512 24.3306 30.4512 23.8129V23.6038C30.4512 23.0961 30.5258 22.5983 30.6752 22.1105C30.8345 21.6227 31.0734 21.1846 31.392 20.7964C31.7105 20.4081 32.1088 20.0995 32.5866 19.8705C33.0745 19.6316 33.6419 19.5121 34.289 19.5121C35.1153 19.5121 35.8023 19.6963 36.3498 20.0646C36.9073 20.433 37.3255 20.9059 37.6042 21.4833C37.883 22.0508 38.0224 22.663 38.0224 23.3201V23.9025H30.9589V23.0364H37.2458L36.9621 23.4694C36.9621 22.882 36.8576 22.3693 36.6485 21.9313C36.4494 21.4833 36.1507 21.1348 35.7525 20.886C35.3642 20.6271 34.8764 20.4977 34.289 20.4977C33.6718 20.4977 33.1591 20.642 32.7509 20.9308C32.3427 21.2195 32.0341 21.6028 31.825 22.0806C31.6259 22.5585 31.5264 23.1011 31.5264 23.7084C31.5264 24.3057 31.6259 24.8532 31.825 25.351C32.0341 25.8388 32.3477 26.2271 32.7658 26.5158C33.1939 26.8045 33.7315 26.9489 34.3786 26.9489C35.0656 26.9489 35.6231 26.7946 36.0512 26.486C36.4793 26.1674 36.7431 25.794 36.8426 25.366H37.888C37.7884 25.8936 37.5793 26.3516 37.2608 26.7398C36.9422 27.1181 36.539 27.4118 36.0512 27.6209C35.5633 27.83 35.0058 27.9345 34.3786 27.9345Z" fill="black" />
  <path d="M25.1553 30.7121V29.7115H26.0513C26.4395 29.7115 26.7332 29.597 26.9323 29.3681C27.1414 29.149 27.2459 28.8305 27.2459 28.4123V19.7809H28.3211V28.2033C28.3211 28.8205 28.2365 29.3133 28.0673 29.6817C27.908 30.05 27.6491 30.3138 27.2907 30.4731C26.9323 30.6324 26.4545 30.7121 25.8571 30.7121H25.1553ZM25.9617 20.6769V19.7809H28.3211V20.6769H25.9617ZM27.455 18.183C27.1862 18.183 26.9821 18.1133 26.8427 17.9739C26.7133 17.8246 26.6486 17.6404 26.6486 17.4214C26.6486 17.2024 26.7133 17.0232 26.8427 16.8838C26.9821 16.7345 27.1862 16.6598 27.455 16.6598C27.7238 16.6598 27.9229 16.7345 28.0523 16.8838C28.1818 17.0232 28.2465 17.2024 28.2465 17.4214C28.2465 17.6404 28.1818 17.8246 28.0523 17.9739C27.9229 18.1133 27.7238 18.183 27.455 18.183Z" fill="black" />
  <path d="M99.6472 15.2111C98.9702 15.2111 98.3828 15.0966 97.8851 14.8676C97.3873 14.6287 96.9791 14.3151 96.6605 13.9268C96.3419 13.5286 96.103 13.0856 95.9437 12.5978C95.7944 12.1099 95.7197 11.6072 95.7197 11.0895V10.8804C95.7197 10.3727 95.7944 9.87492 95.9437 9.3871C96.103 8.89927 96.3419 8.46123 96.6605 8.07296C96.9791 7.6847 97.3773 7.37607 97.8552 7.1471C98.343 6.90816 98.9105 6.7887 99.5576 6.7887C100.384 6.7887 101.071 6.97287 101.618 7.34123C102.176 7.70959 102.594 8.18247 102.873 8.7599C103.152 9.32736 103.291 9.93963 103.291 10.5967V11.1791H96.2275V10.313H102.514L102.231 10.746C102.231 10.1587 102.126 9.64594 101.917 9.2079C101.718 8.7599 101.419 8.41145 101.021 8.16256C100.633 7.90372 100.145 7.7743 99.5576 7.7743C98.9403 7.7743 98.4276 7.91865 98.0195 8.20736C97.6113 8.49607 97.3027 8.87936 97.0936 9.35723C96.8945 9.8351 96.7949 10.3777 96.7949 10.985C96.7949 11.5823 96.8945 12.1299 97.0936 12.6276C97.3027 13.1155 97.6163 13.5037 98.0344 13.7924C98.4625 14.0811 99.0001 14.2255 99.6472 14.2255C100.334 14.2255 100.892 14.0712 101.32 13.7626C101.748 13.444 102.012 13.0707 102.111 12.6426H103.157C103.057 13.1702 102.848 13.6282 102.529 14.0164C102.211 14.3947 101.808 14.6884 101.32 14.8975C100.832 15.1066 100.274 15.2111 99.6472 15.2111Z" fill="black" />
  <path d="M89.5289 15.211C88.9514 15.211 88.4238 15.1065 87.9459 14.8974C87.478 14.6784 87.0698 14.3797 86.7214 14.0014C86.3829 13.6131 86.1191 13.1751 85.9299 12.6873C85.7507 12.1895 85.6611 11.6618 85.6611 11.1043V10.8953C85.6611 10.3577 85.7507 9.84494 85.9299 9.35712C86.1091 8.85934 86.363 8.4213 86.6915 8.04299C87.03 7.65472 87.4332 7.35107 87.9011 7.13205C88.379 6.90307 88.9116 6.78859 89.499 6.78859C90.166 6.78859 90.7534 6.93294 91.2611 7.22165C91.7689 7.51036 92.177 7.9285 92.4857 8.47605C92.7943 9.01365 92.9586 9.6757 92.9785 10.4622L92.4857 9.53632V4.05579H93.6057V14.9571H92.7097V11.4478H93.0681C93.0482 12.2741 92.8739 12.971 92.5454 13.5385C92.2268 14.096 91.8037 14.5141 91.2761 14.7929C90.7584 15.0716 90.176 15.211 89.5289 15.211ZM89.6782 14.2254C90.2158 14.2254 90.6986 14.1059 91.1267 13.867C91.5648 13.6281 91.9082 13.2896 92.1571 12.8515C92.406 12.4035 92.5305 11.8908 92.5305 11.3134V10.5966C92.5305 10.0391 92.406 9.55125 92.1571 9.13312C91.9082 8.70503 91.5648 8.37152 91.1267 8.13259C90.6986 7.89365 90.2108 7.77419 89.6633 7.77419C89.0759 7.77419 88.5632 7.91854 88.1251 8.20725C87.697 8.48601 87.3635 8.8693 87.1246 9.35712C86.8956 9.84494 86.7811 10.3925 86.7811 10.9998C86.7811 11.627 86.9006 12.1845 87.1395 12.6723C87.3785 13.1601 87.717 13.5434 88.155 13.8222C88.593 14.091 89.1008 14.2254 89.6782 14.2254Z" fill="black" />
  <path d="M82.7435 14.9572V12.5828H82.5643V9.77536C82.5643 9.18799 82.41 8.73998 82.1014 8.43136C81.7928 8.11278 81.3149 7.9535 80.6678 7.9535C80.3691 7.9535 80.0655 7.95847 79.7568 7.96843C79.4582 7.97838 79.1695 7.99332 78.8907 8.01323C78.6219 8.02318 78.383 8.03812 78.1739 8.05803V7.07243C78.3929 7.05252 78.6169 7.03261 78.8459 7.0127C79.0749 6.99278 79.3088 6.98283 79.5478 6.98283C79.7967 6.97287 80.0356 6.9679 80.2646 6.9679C81.071 6.9679 81.7181 7.06745 82.2059 7.26656C82.7037 7.46567 83.0671 7.77927 83.296 8.20736C83.525 8.6255 83.6395 9.18301 83.6395 9.8799V14.9572H82.7435ZM80.0704 15.1663C79.5129 15.1663 79.0201 15.0667 78.592 14.8676C78.164 14.6685 77.8304 14.3798 77.5915 14.0015C77.3625 13.6232 77.248 13.1652 77.248 12.6276C77.248 12.1 77.3675 11.652 77.6064 11.2836C77.8553 10.9153 78.2088 10.6365 78.6667 10.4474C79.1346 10.2483 79.6971 10.1487 80.3542 10.1487H82.6688V10.9999H80.2795C79.6523 10.9999 79.1695 11.1542 78.831 11.4628C78.5024 11.7615 78.3382 12.1547 78.3382 12.6426C78.3382 13.1403 78.5124 13.5386 78.8608 13.8372C79.2093 14.1259 79.6822 14.2703 80.2795 14.2703C80.6479 14.2703 81.0013 14.2056 81.3398 14.0762C81.6783 13.9368 81.962 13.7078 82.191 13.3892C82.42 13.0607 82.5444 12.6127 82.5643 12.0452L82.8928 12.5082C82.853 13.0955 82.7136 13.5883 82.4747 13.9866C82.2358 14.3748 81.9122 14.6685 81.504 14.8676C81.0959 15.0667 80.618 15.1663 80.0704 15.1663Z" fill="black" />
  <path d="M63.7197 14.9573V7.0426H64.6157V10.3727H64.4365C64.4365 9.64598 64.5361 9.01878 64.7352 8.49114C64.9443 7.96349 65.2529 7.55531 65.6611 7.2666C66.0692 6.96794 66.5869 6.8186 67.2141 6.8186H67.2589C67.8861 6.8186 68.4038 6.96296 68.812 7.25167C69.2202 7.54038 69.5238 7.94856 69.7229 8.4762C69.922 9.00385 70.0216 9.63603 70.0216 10.3727H69.6632C69.6632 9.64598 69.7628 9.01878 69.9619 8.49114C70.1709 7.96349 70.4796 7.55531 70.8877 7.2666C71.3059 6.96794 71.8285 6.8186 72.4557 6.8186H72.5005C73.1277 6.8186 73.6454 6.96296 74.0536 7.25167C74.4717 7.54038 74.7803 7.94856 74.9795 8.4762C75.1885 9.00385 75.2931 9.63603 75.2931 10.3727V14.9573H74.1731V10.1189C74.1731 9.42198 74.0038 8.86945 73.6653 8.46127C73.3268 8.05309 72.839 7.849 72.2019 7.849C71.5448 7.849 71.0221 8.06305 70.6339 8.49114C70.2555 8.90927 70.0664 9.47674 70.0664 10.1935V14.9573H68.9464V10.1189C68.9464 9.42198 68.7771 8.86945 68.4387 8.46127C68.1002 8.05309 67.6124 7.849 66.9752 7.849C66.3181 7.849 65.7955 8.06305 65.4072 8.49114C65.0289 8.90927 64.8397 9.47674 64.8397 10.1935V14.9573H63.7197Z" fill="black" />
  <path d="M56.9019 15.211C56.3245 15.211 55.7968 15.1065 55.319 14.8974C54.8511 14.6784 54.4429 14.3797 54.0944 14.0014C53.756 13.6131 53.4921 13.1751 53.303 12.6873C53.1238 12.1895 53.0342 11.6618 53.0342 11.1043V10.8953C53.0342 10.3577 53.1238 9.84494 53.303 9.35712C53.4822 8.85934 53.736 8.4213 54.0646 8.04299C54.4031 7.65472 54.8063 7.35107 55.2742 7.13205C55.752 6.90307 56.2847 6.78859 56.872 6.78859C57.5391 6.78859 58.1264 6.93294 58.6342 7.22165C59.1419 7.51036 59.5501 7.9285 59.8587 8.47605C60.1673 9.01365 60.3316 9.6757 60.3515 10.4622L59.8587 9.53632V4.05579H60.9787V14.9571H60.0827V11.4478H60.4411C60.4212 12.2741 60.247 12.971 59.9184 13.5385C59.5999 14.096 59.1768 14.5141 58.6491 14.7929C58.1314 15.0716 57.549 15.211 56.9019 15.211ZM57.0512 14.2254C57.5888 14.2254 58.0717 14.1059 58.4998 13.867C58.9378 13.6281 59.2813 13.2896 59.5302 12.8515C59.7791 12.4035 59.9035 11.8908 59.9035 11.3134V10.5966C59.9035 10.0391 59.7791 9.55125 59.5302 9.13312C59.2813 8.70503 58.9378 8.37152 58.4998 8.13259C58.0717 7.89365 57.5839 7.77419 57.0363 7.77419C56.4489 7.77419 55.9362 7.91854 55.4982 8.20725C55.0701 8.48601 54.7366 8.8693 54.4976 9.35712C54.2687 9.84494 54.1542 10.3925 54.1542 10.9998C54.1542 11.627 54.2736 12.1845 54.5126 12.6723C54.7515 13.1601 55.09 13.5434 55.528 13.8222C55.9661 14.091 56.4738 14.2254 57.0512 14.2254Z" fill="black" />
  <path d="M44.3311 14.9573V7.05754H45.2271V10.3727H45.0479C45.0479 9.63603 45.1574 9.00385 45.3764 8.4762C45.5954 7.94856 45.9239 7.54038 46.362 7.25167C46.8 6.96296 47.3526 6.8186 48.0196 6.8186H48.0644C49.0599 6.8186 49.8016 7.1322 50.2895 7.7594C50.7773 8.37665 51.0212 9.24776 51.0212 10.3727V14.9573H49.9161V10.1338C49.9161 9.44687 49.727 8.89434 49.3487 8.4762C48.9703 8.05807 48.4427 7.849 47.7657 7.849C47.0688 7.849 46.5063 8.06803 46.0783 8.50607C45.6601 8.93416 45.4511 9.50163 45.4511 10.2085V14.9573H44.3311Z" fill="black" />
  <path d="M40.7865 14.9572V12.5828H40.6073V9.77536C40.6073 9.18799 40.453 8.73998 40.1443 8.43136C39.8357 8.11278 39.3579 7.9535 38.7107 7.9535C38.4121 7.9535 38.1084 7.95847 37.7998 7.96843C37.5011 7.97838 37.2124 7.99332 36.9337 8.01323C36.6649 8.02318 36.4259 8.03812 36.2169 8.05803V7.07243C36.4359 7.05252 36.6599 7.03261 36.8889 7.0127C37.1179 6.99278 37.3518 6.98283 37.5907 6.98283C37.8396 6.97287 38.0786 6.9679 38.3075 6.9679C39.1139 6.9679 39.7611 7.06745 40.2489 7.26656C40.7467 7.46567 41.11 7.77927 41.339 8.20736C41.568 8.6255 41.6825 9.18301 41.6825 9.8799V14.9572H40.7865ZM38.1134 15.1663C37.5559 15.1663 37.0631 15.0667 36.635 14.8676C36.2069 14.6685 35.8734 14.3798 35.6345 14.0015C35.4055 13.6232 35.291 13.1652 35.291 12.6276C35.291 12.1 35.4105 11.652 35.6494 11.2836C35.8983 10.9153 36.2517 10.6365 36.7097 10.4474C37.1776 10.2483 37.7401 10.1487 38.3971 10.1487H40.7118V10.9999H38.3225C37.6953 10.9999 37.2124 11.1542 36.8739 11.4628C36.5454 11.7615 36.3811 12.1547 36.3811 12.6426C36.3811 13.1403 36.5554 13.5386 36.9038 13.8372C37.2523 14.1259 37.7251 14.2703 38.3225 14.2703C38.6908 14.2703 39.0443 14.2056 39.3828 14.0762C39.7212 13.9368 40.005 13.7078 40.234 13.3892C40.4629 13.0607 40.5874 12.6127 40.6073 12.0452L40.9358 12.5082C40.896 13.0955 40.7566 13.5883 40.5177 13.9866C40.2787 14.3748 39.9552 14.6685 39.547 14.8676C39.1388 15.0667 38.661 15.1663 38.1134 15.1663Z" fill="black" />
  <path d="M26.6484 14.9571V4.05579H27.7684V10.2233L27.4399 10.4771C27.4399 9.74041 27.5444 9.09828 27.7535 8.55072C27.9725 8.00316 28.2961 7.58005 28.7242 7.28139C29.1622 6.97276 29.7098 6.81845 30.3668 6.81845H30.4266C31.3823 6.81845 32.1041 7.13205 32.5919 7.75925C33.0897 8.38645 33.3386 9.25756 33.3386 10.3726V14.9571H32.2335V10.1337C32.2335 9.42681 32.0394 8.8693 31.6511 8.46112C31.2628 8.05294 30.7402 7.84885 30.0831 7.84885C29.3763 7.84885 28.8138 8.07783 28.3956 8.53579C27.9775 8.98379 27.7684 9.57614 27.7684 10.3129V14.9571H26.6484Z" fill="black" />
  <path d="M42.197 26.8069L43.7639 19.7072H45.2199L47.0364 26.8069H46.1351L44.3186 19.7488H44.6514L43.0706 26.8069H42.197ZM41.6007 26.8069V25.961H42.8626V26.8069H41.6007ZM41.3511 26.8069L39.2295 19.4714H40.2279L42.3218 26.8069H41.3511ZM46.3708 26.8069V25.961H47.605V26.8069H46.3708ZM46.9116 26.8069L48.742 19.4714H49.6988L47.8268 26.8069H46.9116Z" fill="black" />
</symbol>
</svg>
